<svg xmlns="http://www.w3.org/2000/svg" viewBox="0 0 1690 1706" width="1690" height="1706"><defs><style type="text/css">@import url('https://fonts.googleapis.com/css?family=Roboto+Mono:400|Roboto:400,&amp;subset=cyrillic,cyrillic-ext,greek,greek-ext,latin-ext')</style></defs><rect x="0" y="0" width="1690" height="1706" fill="#ffffff"/><text x="845" y="109" text-anchor="middle" font-size="64px" font-family="Roboto,sans-serif" fill="#52565f">Dishie</text><text x="1645" y="1647" text-anchor="end" font-size="14px" font-family="Roboto,sans-serif" color="#52565f">09 October 2019</text><g transform="translate(45,213)"><g><g><g transform="translate(10, 306)"><rect x="0" y="0" rx="2" ry="2" width="180" height="228" fill="#ffffff"/><g><g><g transform="translate( 0, 0 )"><svg xmlns="http://www.w3.org/2000/svg" width="180" height="185" viewBox="0 0 180 185">
  <g fill="none" fill-rule="evenodd">
    <path fill="#58A8F7" d="M0,2.99971296 C0,1.34301724 1.34537458,0 2.99263929,0 L177.007361,0 C178.66015,0 180,1.34382565 180,2.99971296 L180,185 L0,185 L0,2.99971296 Z" opacity=".097"/>
    <path fill="#58A8F7" d="M0,3.00947762 C0,1.34738902 1.34537458,0 2.99263929,0 L177.007361,0 C178.66015,0 180,1.33663106 180,3.00947762 L180,16 L0,16 L0,3.00947762 Z" opacity=".197"/>
    <path fill="#0D87FF" d="M2.5,5 C1.11928813,5 0,3.88071187 0,2.5 C0,1.11928813 1.11928813,0 2.5,0 C3.88071187,0 5,1.11928813 5,2.5 C5,3.88071187 3.88071187,5 2.5,5 Z M10.5,5 C9.11928813,5 8,3.88071187 8,2.5 C8,1.11928813 9.11928813,0 10.5,0 C11.8807119,0 13,1.11928813 13,2.5 C13,3.88071187 11.8807119,5 10.5,5 Z M18.5,5 C17.1192881,5 16,3.88071187 16,2.5 C16,1.11928813 17.1192881,0 18.5,0 C19.8807119,0 21,1.11928813 21,2.5 C21,3.88071187 19.8807119,5 18.5,5 Z" opacity=".499" transform="translate(5 6)"/>
    <polygon fill="#58A8F7" points="0 0 127 0 127 3 0 3" opacity=".197" transform="translate(27 45)"/>
    <polygon fill="#58A8F7" points="0 0 127 0 127 3 0 3" opacity=".197" transform="translate(27 102)"/>
    <polygon fill="#58A8F7" points="0 0 127 0 127 3 0 3" opacity=".197" transform="translate(27 77)"/>
    <polygon fill="#58A8F7" points="0 0 127 0 127 3 0 3" opacity=".197" transform="translate(27 52)"/>
    <polygon fill="#58A8F7" points="0 0 127 0 127 3 0 3" opacity=".197" transform="translate(27 109)"/>
    <polygon fill="#58A8F7" points="0 0 127 0 127 3 0 3" opacity=".197" transform="translate(27 151)"/>
    <polygon fill="#58A8F7" points="0 0 119 0 119 3 0 3" opacity=".197" transform="translate(27 84)"/>
    <polygon fill="#58A8F7" points="0 0 127 0 127 3 0 3" opacity=".197" transform="translate(27 59)"/>
    <polygon fill="#58A8F7" points="0 0 127 0 127 3 0 3" opacity=".197" transform="translate(27 116)"/>
    <polygon fill="#58A8F7" points="0 0 127 0 127 3 0 3" opacity=".197" transform="translate(27 158)"/>
    <polygon fill="#58A8F7" points="0 0 96 0 96 3 0 3" opacity=".197" transform="translate(27 66)"/>
    <polygon fill="#58A8F7" points="0 0 116 0 116 3 0 3" opacity=".197" transform="translate(27 123)"/>
    <polygon fill="#58A8F7" points="0 0 46 0 46 3 0 3" opacity=".197" transform="translate(27 165)"/>
    <polygon fill="#58A8F7" points="0 0 83 0 83 3 0 3" opacity=".197" transform="translate(27 91)"/>
    <g fill="#58A8F7" opacity=".499" transform="translate(27 26)">
      <polygon points="0 0 50 0 50 5 0 5"/>
      <polygon points="0 0 30 0 30 5 0 5" transform="translate(0 9)"/>
    </g>
    <polygon fill="#58A8F7" points="0 0 50 0 50 5 0 5" opacity=".499" transform="translate(27 141)"/>
  </g>
</svg></g></g></g><rect x="-1" y="-1" rx="3" ry="3" width="182" height="230" fill="none" stroke="#A2CEF9" stroke-width="2"/><g transform="translate(0,206)"><g><text x="90" y="4" text-anchor="middle" font-family="Roboto,sans-serif" font-size="14px" fill="#52565f">About us</text></g></g></g><g transform="translate(210, 586)"><rect x="0" y="0" rx="2" ry="2" width="180" height="228" fill="#ffffff"/><g><g><g transform="translate( 0, 0 )"><svg xmlns="http://www.w3.org/2000/svg" xmlns:xlink="http://www.w3.org/1999/xlink" width="180" height="185" viewBox="0 0 180 185">
  <defs>
    <path id="la43nxlhn6-search_results-a" d="M0,1.99508929 C0,0.893231902 0.897026226,0 2.00494659,0 L21.9950534,0 C23.1023548,0 24,0.892622799 24,1.99508929 L24,16.0049107 C24,17.1067681 23.1029738,18 21.9950534,18 L2.00494659,18 C0.897645164,18 0,17.1073772 0,16.0049107 L0,1.99508929 Z"/>
    <path id="la43nxlhn6-search_results-c" d="M0,1.99508929 C0,0.893231902 0.897026226,0 2.00494659,0 L21.9950534,0 C23.1023548,0 24,0.892622799 24,1.99508929 L24,16.0049107 C24,17.1067681 23.1029738,18 21.9950534,18 L2.00494659,18 C0.897645164,18 0,17.1073772 0,16.0049107 L0,1.99508929 Z"/>
    <path id="la43nxlhn6-search_results-e" d="M0,1.99508929 C0,0.893231902 0.897026226,0 2.00494659,0 L21.9950534,0 C23.1023548,0 24,0.892622799 24,1.99508929 L24,16.0049107 C24,17.1067681 23.1029738,18 21.9950534,18 L2.00494659,18 C0.897645164,18 0,17.1073772 0,16.0049107 L0,1.99508929 Z"/>
  </defs>
  <g fill="none" fill-rule="evenodd">
    <path fill="#58A8F7" d="M0,2.99971296 C0,1.34301724 1.34537458,0 2.99263929,0 L177.007361,0 C178.66015,0 180,1.34382565 180,2.99971296 L180,185 L0,185 L0,2.99971296 Z" opacity=".097"/>
    <path fill="#58A8F7" d="M0,3.00947762 C0,1.34738902 1.34537458,0 2.99263929,0 L177.007361,0 C178.66015,0 180,1.33663106 180,3.00947762 L180,16 L0,16 L0,3.00947762 Z" opacity=".197"/>
    <path fill="#0D87FF" d="M2.5,5 C1.11928813,5 0,3.88071187 0,2.5 C0,1.11928813 1.11928813,0 2.5,0 C3.88071187,0 5,1.11928813 5,2.5 C5,3.88071187 3.88071187,5 2.5,5 Z M10.5,5 C9.11928813,5 8,3.88071187 8,2.5 C8,1.11928813 9.11928813,0 10.5,0 C11.8807119,0 13,1.11928813 13,2.5 C13,3.88071187 11.8807119,5 10.5,5 Z M18.5,5 C17.1192881,5 16,3.88071187 16,2.5 C16,1.11928813 17.1192881,0 18.5,0 C19.8807119,0 21,1.11928813 21,2.5 C21,3.88071187 19.8807119,5 18.5,5 Z" opacity=".499" transform="translate(5 6)"/>
    <g transform="translate(20 36)">
      <g transform="translate(0 6)">
        <rect width="140" height="11" fill="#58A8F7" opacity=".499" rx="2"/>
        <rect width="138" height="9" x="1" y="1" fill="#FFF" rx="1"/>
        <polygon fill="#58A8F7" points="0 0 82 0 82 3 0 3" opacity=".197" transform="translate(4 4)"/>
        <polygon fill="#0D87FF" points="2.5 3 0 0 5 0" transform="translate(130 4)"/>
      </g>
      <polygon fill="#58A8F7" points="0 0 49 0 49 3 0 3" opacity=".197"/>
    </g>
    <g transform="translate(20 73)">
      <path fill="#58A8F7" d="M0,1.99508929 C0,0.893231902 0.897026226,0 2.00494659,0 L21.9950534,0 C23.1023548,0 24,0.892622799 24,1.99508929 L24,16.0049107 C24,17.1067681 23.1029738,18 21.9950534,18 L2.00494659,18 C0.897645164,18 0,17.1073772 0,16.0049107 L0,1.99508929 Z" opacity=".197"/>
      <mask id="la43nxlhn6-search_results-b" fill="#fff">
        <use xlink:href="#la43nxlhn6-search_results-a"/>
      </mask>
      <path fill="#58A8F7" d="M20.5714286,9.81818182 C25.2050919,9.81818182 28.0565771,13.3115424 32.5714286,18 C28.8882603,18 13.1203921,18 8.57142857,18 C12.4922207,14.1389173 15.9377652,9.81818182 20.5714286,9.81818182 Z" mask="url(#la43nxlhn6-search_results-b)" opacity=".197"/>
      <path fill="#0D87FF" d="M3.42857143,8.18181818 C8.31958315,8.18181818 11.9126984,12.8633949 16.2857143,18 C10.5479809,18 -3.34693878,18 -8.57142857,18 C-4.34737299,12.8633949 -1.4624403,8.18181818 3.42857143,8.18181818 Z" mask="url(#la43nxlhn6-search_results-b)" opacity=".198"/>
      <circle cx="12.857" cy="5.727" r="3" fill="#58A8F7" mask="url(#la43nxlhn6-search_results-b)" opacity=".499"/>
    </g>
    <g transform="translate(20 106)">
      <path fill="#58A8F7" d="M0,1.99508929 C0,0.893231902 0.897026226,0 2.00494659,0 L21.9950534,0 C23.1023548,0 24,0.892622799 24,1.99508929 L24,16.0049107 C24,17.1067681 23.1029738,18 21.9950534,18 L2.00494659,18 C0.897645164,18 0,17.1073772 0,16.0049107 L0,1.99508929 Z" opacity=".197"/>
      <mask id="la43nxlhn6-search_results-d" fill="#fff">
        <use xlink:href="#la43nxlhn6-search_results-c"/>
      </mask>
      <path fill="#58A8F7" d="M20.5714286,9.81818182 C25.2050919,9.81818182 28.0565771,13.3115424 32.5714286,18 C28.8882603,18 13.1203921,18 8.57142857,18 C12.4922207,14.1389173 15.9377652,9.81818182 20.5714286,9.81818182 Z" mask="url(#la43nxlhn6-search_results-d)" opacity=".197"/>
      <path fill="#0D87FF" d="M3.42857143,8.18181818 C8.31958315,8.18181818 11.9126984,12.8633949 16.2857143,18 C10.5479809,18 -3.34693878,18 -8.57142857,18 C-4.34737299,12.8633949 -1.4624403,8.18181818 3.42857143,8.18181818 Z" mask="url(#la43nxlhn6-search_results-d)" opacity=".198"/>
      <circle cx="12.857" cy="5.727" r="3" fill="#58A8F7" mask="url(#la43nxlhn6-search_results-d)" opacity=".499"/>
    </g>
    <polygon fill="#58A8F7" points="0 0 50 0 50 8 0 8" opacity=".499" transform="translate(54 73)"/>
    <polygon fill="#58A8F7" points="0 0 50 0 50 8 0 8" opacity=".499" transform="translate(54 106)"/>
    <g fill="#58A8F7" opacity=".197" transform="translate(54 86)">
      <polygon points="0 0 70 0 70 3 0 3"/>
      <polygon points="0 0 42 0 42 3 0 3" transform="translate(0 7)"/>
    </g>
    <g fill="#58A8F7" opacity=".197" transform="translate(54 119)">
      <polygon points="0 0 70 0 70 3 0 3"/>
      <polygon points="0 0 42 0 42 3 0 3" transform="translate(0 7)"/>
    </g>
    <g fill="#58A8F7" opacity=".197" transform="translate(54 152)">
      <polygon points="0 0 70 0 70 3 0 3"/>
      <polygon points="0 0 42 0 42 3 0 3" transform="translate(0 7)"/>
    </g>
    <g transform="translate(20 139)">
      <path fill="#58A8F7" d="M0,1.99508929 C0,0.893231902 0.897026226,0 2.00494659,0 L21.9950534,0 C23.1023548,0 24,0.892622799 24,1.99508929 L24,16.0049107 C24,17.1067681 23.1029738,18 21.9950534,18 L2.00494659,18 C0.897645164,18 0,17.1073772 0,16.0049107 L0,1.99508929 Z" opacity=".197"/>
      <mask id="la43nxlhn6-search_results-f" fill="#fff">
        <use xlink:href="#la43nxlhn6-search_results-e"/>
      </mask>
      <path fill="#58A8F7" d="M20.5714286,9.81818182 C25.2050919,9.81818182 28.0565771,13.3115424 32.5714286,18 C28.8882603,18 13.1203921,18 8.57142857,18 C12.4922207,14.1389173 15.9377652,9.81818182 20.5714286,9.81818182 Z" mask="url(#la43nxlhn6-search_results-f)" opacity=".197"/>
      <path fill="#0D87FF" d="M3.42857143,8.18181818 C8.31958315,8.18181818 11.9126984,12.8633949 16.2857143,18 C10.5479809,18 -3.34693878,18 -8.57142857,18 C-4.34737299,12.8633949 -1.4624403,8.18181818 3.42857143,8.18181818 Z" mask="url(#la43nxlhn6-search_results-f)" opacity=".198"/>
      <circle cx="12.857" cy="5.727" r="3" fill="#58A8F7" mask="url(#la43nxlhn6-search_results-f)" opacity=".499"/>
    </g>
    <polygon fill="#58A8F7" points="0 0 50 0 50 8 0 8" opacity=".499" transform="translate(54 139)"/>
  </g>
</svg></g></g></g><rect x="-1" y="-1" rx="3" ry="3" width="182" height="230" fill="none" stroke="#A2CEF9" stroke-width="2"/><g transform="translate(0,206)"><g><text x="90" y="4" text-anchor="middle" font-family="Roboto,sans-serif" font-size="14px" fill="#52565f">Search results</text></g></g></g><g transform="translate(210, 306)"><rect x="0" y="0" rx="2" ry="2" width="180" height="228" fill="#ffffff"/><g><g><g transform="translate( 0, 0 )"><svg xmlns="http://www.w3.org/2000/svg" xmlns:xlink="http://www.w3.org/1999/xlink" width="180" height="185" viewBox="0 0 180 185">
  <defs>
    <path id="nc3gdgfzdgq-search_results-a" d="M0,1.99508929 C0,0.893231902 0.897026226,0 2.00494659,0 L21.9950534,0 C23.1023548,0 24,0.892622799 24,1.99508929 L24,16.0049107 C24,17.1067681 23.1029738,18 21.9950534,18 L2.00494659,18 C0.897645164,18 0,17.1073772 0,16.0049107 L0,1.99508929 Z"/>
    <path id="nc3gdgfzdgq-search_results-c" d="M0,1.99508929 C0,0.893231902 0.897026226,0 2.00494659,0 L21.9950534,0 C23.1023548,0 24,0.892622799 24,1.99508929 L24,16.0049107 C24,17.1067681 23.1029738,18 21.9950534,18 L2.00494659,18 C0.897645164,18 0,17.1073772 0,16.0049107 L0,1.99508929 Z"/>
    <path id="nc3gdgfzdgq-search_results-e" d="M0,1.99508929 C0,0.893231902 0.897026226,0 2.00494659,0 L21.9950534,0 C23.1023548,0 24,0.892622799 24,1.99508929 L24,16.0049107 C24,17.1067681 23.1029738,18 21.9950534,18 L2.00494659,18 C0.897645164,18 0,17.1073772 0,16.0049107 L0,1.99508929 Z"/>
  </defs>
  <g fill="none" fill-rule="evenodd">
    <path fill="#58A8F7" d="M0,2.99971296 C0,1.34301724 1.34537458,0 2.99263929,0 L177.007361,0 C178.66015,0 180,1.34382565 180,2.99971296 L180,185 L0,185 L0,2.99971296 Z" opacity=".097"/>
    <path fill="#58A8F7" d="M0,3.00947762 C0,1.34738902 1.34537458,0 2.99263929,0 L177.007361,0 C178.66015,0 180,1.33663106 180,3.00947762 L180,16 L0,16 L0,3.00947762 Z" opacity=".197"/>
    <path fill="#0D87FF" d="M2.5,5 C1.11928813,5 0,3.88071187 0,2.5 C0,1.11928813 1.11928813,0 2.5,0 C3.88071187,0 5,1.11928813 5,2.5 C5,3.88071187 3.88071187,5 2.5,5 Z M10.5,5 C9.11928813,5 8,3.88071187 8,2.5 C8,1.11928813 9.11928813,0 10.5,0 C11.8807119,0 13,1.11928813 13,2.5 C13,3.88071187 11.8807119,5 10.5,5 Z M18.5,5 C17.1192881,5 16,3.88071187 16,2.5 C16,1.11928813 17.1192881,0 18.5,0 C19.8807119,0 21,1.11928813 21,2.5 C21,3.88071187 19.8807119,5 18.5,5 Z" opacity=".499" transform="translate(5 6)"/>
    <g transform="translate(20 36)">
      <g transform="translate(0 6)">
        <rect width="140" height="11" fill="#58A8F7" opacity=".499" rx="2"/>
        <rect width="138" height="9" x="1" y="1" fill="#FFF" rx="1"/>
        <polygon fill="#58A8F7" points="0 0 82 0 82 3 0 3" opacity=".197" transform="translate(4 4)"/>
        <polygon fill="#0D87FF" points="2.5 3 0 0 5 0" transform="translate(130 4)"/>
      </g>
      <polygon fill="#58A8F7" points="0 0 49 0 49 3 0 3" opacity=".197"/>
    </g>
    <g transform="translate(20 73)">
      <path fill="#58A8F7" d="M0,1.99508929 C0,0.893231902 0.897026226,0 2.00494659,0 L21.9950534,0 C23.1023548,0 24,0.892622799 24,1.99508929 L24,16.0049107 C24,17.1067681 23.1029738,18 21.9950534,18 L2.00494659,18 C0.897645164,18 0,17.1073772 0,16.0049107 L0,1.99508929 Z" opacity=".197"/>
      <mask id="nc3gdgfzdgq-search_results-b" fill="#fff">
        <use xlink:href="#nc3gdgfzdgq-search_results-a"/>
      </mask>
      <path fill="#58A8F7" d="M20.5714286,9.81818182 C25.2050919,9.81818182 28.0565771,13.3115424 32.5714286,18 C28.8882603,18 13.1203921,18 8.57142857,18 C12.4922207,14.1389173 15.9377652,9.81818182 20.5714286,9.81818182 Z" mask="url(#nc3gdgfzdgq-search_results-b)" opacity=".197"/>
      <path fill="#0D87FF" d="M3.42857143,8.18181818 C8.31958315,8.18181818 11.9126984,12.8633949 16.2857143,18 C10.5479809,18 -3.34693878,18 -8.57142857,18 C-4.34737299,12.8633949 -1.4624403,8.18181818 3.42857143,8.18181818 Z" mask="url(#nc3gdgfzdgq-search_results-b)" opacity=".198"/>
      <circle cx="12.857" cy="5.727" r="3" fill="#58A8F7" mask="url(#nc3gdgfzdgq-search_results-b)" opacity=".499"/>
    </g>
    <g transform="translate(20 106)">
      <path fill="#58A8F7" d="M0,1.99508929 C0,0.893231902 0.897026226,0 2.00494659,0 L21.9950534,0 C23.1023548,0 24,0.892622799 24,1.99508929 L24,16.0049107 C24,17.1067681 23.1029738,18 21.9950534,18 L2.00494659,18 C0.897645164,18 0,17.1073772 0,16.0049107 L0,1.99508929 Z" opacity=".197"/>
      <mask id="nc3gdgfzdgq-search_results-d" fill="#fff">
        <use xlink:href="#nc3gdgfzdgq-search_results-c"/>
      </mask>
      <path fill="#58A8F7" d="M20.5714286,9.81818182 C25.2050919,9.81818182 28.0565771,13.3115424 32.5714286,18 C28.8882603,18 13.1203921,18 8.57142857,18 C12.4922207,14.1389173 15.9377652,9.81818182 20.5714286,9.81818182 Z" mask="url(#nc3gdgfzdgq-search_results-d)" opacity=".197"/>
      <path fill="#0D87FF" d="M3.42857143,8.18181818 C8.31958315,8.18181818 11.9126984,12.8633949 16.2857143,18 C10.5479809,18 -3.34693878,18 -8.57142857,18 C-4.34737299,12.8633949 -1.4624403,8.18181818 3.42857143,8.18181818 Z" mask="url(#nc3gdgfzdgq-search_results-d)" opacity=".198"/>
      <circle cx="12.857" cy="5.727" r="3" fill="#58A8F7" mask="url(#nc3gdgfzdgq-search_results-d)" opacity=".499"/>
    </g>
    <polygon fill="#58A8F7" points="0 0 50 0 50 8 0 8" opacity=".499" transform="translate(54 73)"/>
    <polygon fill="#58A8F7" points="0 0 50 0 50 8 0 8" opacity=".499" transform="translate(54 106)"/>
    <g fill="#58A8F7" opacity=".197" transform="translate(54 86)">
      <polygon points="0 0 70 0 70 3 0 3"/>
      <polygon points="0 0 42 0 42 3 0 3" transform="translate(0 7)"/>
    </g>
    <g fill="#58A8F7" opacity=".197" transform="translate(54 119)">
      <polygon points="0 0 70 0 70 3 0 3"/>
      <polygon points="0 0 42 0 42 3 0 3" transform="translate(0 7)"/>
    </g>
    <g fill="#58A8F7" opacity=".197" transform="translate(54 152)">
      <polygon points="0 0 70 0 70 3 0 3"/>
      <polygon points="0 0 42 0 42 3 0 3" transform="translate(0 7)"/>
    </g>
    <g transform="translate(20 139)">
      <path fill="#58A8F7" d="M0,1.99508929 C0,0.893231902 0.897026226,0 2.00494659,0 L21.9950534,0 C23.1023548,0 24,0.892622799 24,1.99508929 L24,16.0049107 C24,17.1067681 23.1029738,18 21.9950534,18 L2.00494659,18 C0.897645164,18 0,17.1073772 0,16.0049107 L0,1.99508929 Z" opacity=".197"/>
      <mask id="nc3gdgfzdgq-search_results-f" fill="#fff">
        <use xlink:href="#nc3gdgfzdgq-search_results-e"/>
      </mask>
      <path fill="#58A8F7" d="M20.5714286,9.81818182 C25.2050919,9.81818182 28.0565771,13.3115424 32.5714286,18 C28.8882603,18 13.1203921,18 8.57142857,18 C12.4922207,14.1389173 15.9377652,9.81818182 20.5714286,9.81818182 Z" mask="url(#nc3gdgfzdgq-search_results-f)" opacity=".197"/>
      <path fill="#0D87FF" d="M3.42857143,8.18181818 C8.31958315,8.18181818 11.9126984,12.8633949 16.2857143,18 C10.5479809,18 -3.34693878,18 -8.57142857,18 C-4.34737299,12.8633949 -1.4624403,8.18181818 3.42857143,8.18181818 Z" mask="url(#nc3gdgfzdgq-search_results-f)" opacity=".198"/>
      <circle cx="12.857" cy="5.727" r="3" fill="#58A8F7" mask="url(#nc3gdgfzdgq-search_results-f)" opacity=".499"/>
    </g>
    <polygon fill="#58A8F7" points="0 0 50 0 50 8 0 8" opacity=".499" transform="translate(54 139)"/>
  </g>
</svg></g></g></g><rect x="-1" y="-1" rx="3" ry="3" width="182" height="230" fill="none" stroke="#A2CEF9" stroke-width="2"/><g transform="translate(0,206)"><g><text x="90" y="4" text-anchor="middle" font-family="Roboto,sans-serif" font-size="14px" fill="#52565f">Search</text></g></g></g><g transform="translate(410, 586)"><rect x="0" y="0" rx="2" ry="2" width="180" height="228" fill="#ffffff"/><g><g><g transform="translate( 0, 0 )"><svg xmlns="http://www.w3.org/2000/svg" xmlns:xlink="http://www.w3.org/1999/xlink" width="180" height="185" viewBox="0 0 180 185">
  <defs>
    <path id="gpy5qluv6wb-news_list-a" d="M0,1.99508929 C0,0.893231902 0.897026226,0 2.00494659,0 L21.9950534,0 C23.1023548,0 24,0.892622799 24,1.99508929 L24,16.0049107 C24,17.1067681 23.1029738,18 21.9950534,18 L2.00494659,18 C0.897645164,18 0,17.1073772 0,16.0049107 L0,1.99508929 Z"/>
    <path id="gpy5qluv6wb-news_list-c" d="M0,1.99508929 C0,0.893231902 0.897026226,0 2.00494659,0 L21.9950534,0 C23.1023548,0 24,0.892622799 24,1.99508929 L24,16.0049107 C24,17.1067681 23.1029738,18 21.9950534,18 L2.00494659,18 C0.897645164,18 0,17.1073772 0,16.0049107 L0,1.99508929 Z"/>
    <path id="gpy5qluv6wb-news_list-e" d="M0,1.99508929 C0,0.893231902 0.897026226,0 2.00494659,0 L21.9950534,0 C23.1023548,0 24,0.892622799 24,1.99508929 L24,16.0049107 C24,17.1067681 23.1029738,18 21.9950534,18 L2.00494659,18 C0.897645164,18 0,17.1073772 0,16.0049107 L0,1.99508929 Z"/>
    <path id="gpy5qluv6wb-news_list-g" d="M0,1.99508929 C0,0.893231902 0.897026226,0 2.00494659,0 L21.9950534,0 C23.1023548,0 24,0.892622799 24,1.99508929 L24,16.0049107 C24,17.1067681 23.1029738,18 21.9950534,18 L2.00494659,18 C0.897645164,18 0,17.1073772 0,16.0049107 L0,1.99508929 Z"/>
  </defs>
  <g fill="none" fill-rule="evenodd">
    <path fill="#58A8F7" d="M0,2.99971296 C0,1.34301724 1.34537458,0 2.99263929,0 L177.007361,0 C178.66015,0 180,1.34382565 180,2.99971296 L180,185 L0,185 L0,2.99971296 Z" opacity=".097"/>
    <path fill="#58A8F7" d="M0,3.00947762 C0,1.34738902 1.34537458,0 2.99263929,0 L177.007361,0 C178.66015,0 180,1.33663106 180,3.00947762 L180,16 L0,16 L0,3.00947762 Z" opacity=".197"/>
    <path fill="#0D87FF" d="M2.5,5 C1.11928813,5 0,3.88071187 0,2.5 C0,1.11928813 1.11928813,0 2.5,0 C3.88071187,0 5,1.11928813 5,2.5 C5,3.88071187 3.88071187,5 2.5,5 Z M10.5,5 C9.11928813,5 8,3.88071187 8,2.5 C8,1.11928813 9.11928813,0 10.5,0 C11.8807119,0 13,1.11928813 13,2.5 C13,3.88071187 11.8807119,5 10.5,5 Z M18.5,5 C17.1192881,5 16,3.88071187 16,2.5 C16,1.11928813 17.1192881,0 18.5,0 C19.8807119,0 21,1.11928813 21,2.5 C21,3.88071187 19.8807119,5 18.5,5 Z" opacity=".499" transform="translate(5 6)"/>
    <polygon fill="#58A8F7" points="0 0 14 0 14 3 0 3" opacity=".197" transform="translate(44 36)"/>
    <polygon fill="#58A8F7" points="0 0 70 0 70 5 0 5" opacity=".499" transform="translate(44 42)"/>
    <polygon fill="#58A8F7" points="0 0 20 0 20 5 0 5" opacity=".499" transform="translate(119 42)"/>
    <g fill="#58A8F7" opacity=".197" transform="translate(44 52)">
      <polygon points="0 0 116 0 116 3 0 3"/>
      <polygon points="0 0 70 0 70 3 0 3" transform="translate(0 7)"/>
    </g>
    <g transform="translate(10 36)">
      <path fill="#58A8F7" d="M0,1.99508929 C0,0.893231902 0.897026226,0 2.00494659,0 L21.9950534,0 C23.1023548,0 24,0.892622799 24,1.99508929 L24,16.0049107 C24,17.1067681 23.1029738,18 21.9950534,18 L2.00494659,18 C0.897645164,18 0,17.1073772 0,16.0049107 L0,1.99508929 Z" opacity=".197"/>
      <mask id="gpy5qluv6wb-news_list-b" fill="#fff">
        <use xlink:href="#gpy5qluv6wb-news_list-a"/>
      </mask>
      <path fill="#58A8F7" d="M20.5714286,9.81818182 C25.2050919,9.81818182 28.0565771,13.3115424 32.5714286,18 C28.8882603,18 13.1203921,18 8.57142857,18 C12.4922207,14.1389173 15.9377652,9.81818182 20.5714286,9.81818182 Z" mask="url(#gpy5qluv6wb-news_list-b)" opacity=".197"/>
      <path fill="#0D87FF" d="M3.42857143,8.18181818 C8.31958315,8.18181818 11.9126984,12.8633949 16.2857143,18 C10.5479809,18 -3.34693878,18 -8.57142857,18 C-4.34737299,12.8633949 -1.4624403,8.18181818 3.42857143,8.18181818 Z" mask="url(#gpy5qluv6wb-news_list-b)" opacity=".198"/>
      <circle cx="12.857" cy="5.727" r="3" fill="#58A8F7" mask="url(#gpy5qluv6wb-news_list-b)" opacity=".499"/>
    </g>
    <polygon fill="#58A8F7" points="0 0 14 0 14 3 0 3" opacity=".197" transform="translate(44 72)"/>
    <polygon fill="#58A8F7" points="0 0 40 0 40 5 0 5" opacity=".499" transform="translate(44 78)"/>
    <polygon fill="#58A8F7" points="0 0 50 0 50 5 0 5" opacity=".499" transform="translate(89 78)"/>
    <g fill="#58A8F7" opacity=".197" transform="translate(44 88)">
      <polygon points="0 0 116 0 116 3 0 3"/>
      <polygon points="0 0 70 0 70 3 0 3" transform="translate(0 7)"/>
    </g>
    <g transform="translate(10 72)">
      <path fill="#58A8F7" d="M0,1.99508929 C0,0.893231902 0.897026226,0 2.00494659,0 L21.9950534,0 C23.1023548,0 24,0.892622799 24,1.99508929 L24,16.0049107 C24,17.1067681 23.1029738,18 21.9950534,18 L2.00494659,18 C0.897645164,18 0,17.1073772 0,16.0049107 L0,1.99508929 Z" opacity=".197"/>
      <mask id="gpy5qluv6wb-news_list-d" fill="#fff">
        <use xlink:href="#gpy5qluv6wb-news_list-c"/>
      </mask>
      <path fill="#58A8F7" d="M20.5714286,9.81818182 C25.2050919,9.81818182 28.0565771,13.3115424 32.5714286,18 C28.8882603,18 13.1203921,18 8.57142857,18 C12.4922207,14.1389173 15.9377652,9.81818182 20.5714286,9.81818182 Z" mask="url(#gpy5qluv6wb-news_list-d)" opacity=".197"/>
      <path fill="#0D87FF" d="M3.42857143,8.18181818 C8.31958315,8.18181818 11.9126984,12.8633949 16.2857143,18 C10.5479809,18 -3.34693878,18 -8.57142857,18 C-4.34737299,12.8633949 -1.4624403,8.18181818 3.42857143,8.18181818 Z" mask="url(#gpy5qluv6wb-news_list-d)" opacity=".198"/>
      <circle cx="12.857" cy="5.727" r="3" fill="#58A8F7" mask="url(#gpy5qluv6wb-news_list-d)" opacity=".499"/>
    </g>
    <polygon fill="#58A8F7" points="0 0 14 0 14 3 0 3" opacity=".197" transform="translate(44 108)"/>
    <polygon fill="#58A8F7" points="0 0 20 0 20 5 0 5" opacity=".499" transform="translate(44 114)"/>
    <polygon fill="#58A8F7" points="0 0 50 0 50 5 0 5" opacity=".499" transform="translate(69 114)"/>
    <polygon fill="#58A8F7" points="0 0 21 0 21 5 0 5" opacity=".499" transform="translate(124 114)"/>
    <g fill="#58A8F7" opacity=".197" transform="translate(44 124)">
      <polygon points="0 0 116 0 116 3 0 3"/>
      <polygon points="0 0 70 0 70 3 0 3" transform="translate(0 7)"/>
    </g>
    <g transform="translate(10 108)">
      <path fill="#58A8F7" d="M0,1.99508929 C0,0.893231902 0.897026226,0 2.00494659,0 L21.9950534,0 C23.1023548,0 24,0.892622799 24,1.99508929 L24,16.0049107 C24,17.1067681 23.1029738,18 21.9950534,18 L2.00494659,18 C0.897645164,18 0,17.1073772 0,16.0049107 L0,1.99508929 Z" opacity=".197"/>
      <mask id="gpy5qluv6wb-news_list-f" fill="#fff">
        <use xlink:href="#gpy5qluv6wb-news_list-e"/>
      </mask>
      <path fill="#58A8F7" d="M20.5714286,9.81818182 C25.2050919,9.81818182 28.0565771,13.3115424 32.5714286,18 C28.8882603,18 13.1203921,18 8.57142857,18 C12.4922207,14.1389173 15.9377652,9.81818182 20.5714286,9.81818182 Z" mask="url(#gpy5qluv6wb-news_list-f)" opacity=".197"/>
      <path fill="#0D87FF" d="M3.42857143,8.18181818 C8.31958315,8.18181818 11.9126984,12.8633949 16.2857143,18 C10.5479809,18 -3.34693878,18 -8.57142857,18 C-4.34737299,12.8633949 -1.4624403,8.18181818 3.42857143,8.18181818 Z" mask="url(#gpy5qluv6wb-news_list-f)" opacity=".198"/>
      <circle cx="12.857" cy="5.727" r="3" fill="#58A8F7" mask="url(#gpy5qluv6wb-news_list-f)" opacity=".499"/>
    </g>
    <polygon fill="#58A8F7" points="0 0 14 0 14 3 0 3" opacity=".197" transform="translate(44 144)"/>
    <polygon fill="#58A8F7" points="0 0 50 0 50 5 0 5" opacity=".499" transform="translate(44 150)"/>
    <polygon fill="#58A8F7" points="0 0 30 0 30 5 0 5" opacity=".499" transform="translate(99 150)"/>
    <g fill="#58A8F7" opacity=".197" transform="translate(44 160)">
      <polygon points="0 0 116 0 116 3 0 3"/>
      <polygon points="0 0 70 0 70 3 0 3" transform="translate(0 7)"/>
    </g>
    <g transform="translate(10 144)">
      <path fill="#58A8F7" d="M0,1.99508929 C0,0.893231902 0.897026226,0 2.00494659,0 L21.9950534,0 C23.1023548,0 24,0.892622799 24,1.99508929 L24,16.0049107 C24,17.1067681 23.1029738,18 21.9950534,18 L2.00494659,18 C0.897645164,18 0,17.1073772 0,16.0049107 L0,1.99508929 Z" opacity=".197"/>
      <mask id="gpy5qluv6wb-news_list-h" fill="#fff">
        <use xlink:href="#gpy5qluv6wb-news_list-g"/>
      </mask>
      <path fill="#58A8F7" d="M20.5714286,9.81818182 C25.2050919,9.81818182 28.0565771,13.3115424 32.5714286,18 C28.8882603,18 13.1203921,18 8.57142857,18 C12.4922207,14.1389173 15.9377652,9.81818182 20.5714286,9.81818182 Z" mask="url(#gpy5qluv6wb-news_list-h)" opacity=".197"/>
      <path fill="#0D87FF" d="M3.42857143,8.18181818 C8.31958315,8.18181818 11.9126984,12.8633949 16.2857143,18 C10.5479809,18 -3.34693878,18 -8.57142857,18 C-4.34737299,12.8633949 -1.4624403,8.18181818 3.42857143,8.18181818 Z" mask="url(#gpy5qluv6wb-news_list-h)" opacity=".198"/>
      <circle cx="12.857" cy="5.727" r="3" fill="#58A8F7" mask="url(#gpy5qluv6wb-news_list-h)" opacity=".499"/>
    </g>
  </g>
</svg></g></g></g><rect x="-1" y="-1" rx="3" ry="3" width="182" height="230" fill="none" stroke="#A2CEF9" stroke-width="2"/><g transform="translate(0,206)"><g><text x="90" y="4" text-anchor="middle" font-family="Roboto,sans-serif" font-size="14px" fill="#52565f">specific recipe</text></g></g></g><g transform="translate(610, 586)"><rect x="0" y="0" rx="2" ry="2" width="180" height="228" fill="#ffffff"/><g><g><g transform="translate( 0, 0 )"><svg xmlns="http://www.w3.org/2000/svg" xmlns:xlink="http://www.w3.org/1999/xlink" width="180" height="185" viewBox="0 0 180 185">
  <defs>
    <rect id="o6eil5kc1k-main-a" width="160" height="82" rx="2"/>
  </defs>
  <g fill="none" fill-rule="evenodd">
    <path fill="#58A8F7" d="M0,2.99971296 C0,1.34301724 1.34537458,0 2.99263929,0 L177.007361,0 C178.66015,0 180,1.34382565 180,2.99971296 L180,185 L0,185 L0,2.99971296 Z" opacity=".097"/>
    <g transform="translate(10 26)">
      <rect width="160" height="82" fill="#58A8F7" opacity=".197" rx="2"/>
      <mask id="o6eil5kc1k-main-b" fill="#fff">
        <use xlink:href="#o6eil5kc1k-main-a"/>
      </mask>
      <use fill="#58A8F7" opacity="0" xlink:href="#o6eil5kc1k-main-a"/>
      <path fill="#58A8F7" d="M123.544554,38 C147.292079,38 158.861386,56.7865169 182,82 C163.123762,82 82.3134379,82 59,82 C79.0940594,61.2359551 99.7970297,38 123.544554,38 Z" mask="url(#o6eil5kc1k-main-b)" opacity=".197"/>
      <path fill="#0D87FF" d="M44.5,31 C69.8826643,31 86.3055556,55.3181901 109,82 C79.2231422,82 7.11330049,82 -20,82 C1.92139189,55.3181901 19.1173357,31 44.5,31 Z" mask="url(#o6eil5kc1k-main-b)" opacity=".198"/>
      <circle cx="87" cy="22" r="9" fill="#58A8F7" mask="url(#o6eil5kc1k-main-b)" opacity=".499"/>
    </g>
    <g transform="translate(26 118)">
      <circle cx="7.5" cy="7.5" r="7.5" fill="#0D87FF" opacity=".499"/>
      <polygon fill="#FFF" points="7.5 9.75 4.855 11.141 5.36 8.195 3.22 6.109 6.177 5.68 7.5 3 8.823 5.68 11.78 6.109 9.64 8.195 10.145 11.141"/>
    </g>
    <g transform="translate(140 118)">
      <circle cx="7.5" cy="7.5" r="7.5" fill="#0D87FF" opacity=".499"/>
      <polygon fill="#FFF" points="7.5 9.75 4.855 11.141 5.36 8.195 3.22 6.109 6.177 5.68 7.5 3 8.823 5.68 11.78 6.109 9.64 8.195 10.145 11.141"/>
    </g>
    <g transform="translate(83 118)">
      <circle cx="7.5" cy="7.5" r="7.5" fill="#0D87FF" opacity=".499"/>
      <polygon fill="#FFF" points="7.5 9.75 4.855 11.141 5.36 8.195 3.22 6.109 6.177 5.68 7.5 3 8.823 5.68 11.78 6.109 9.64 8.195 10.145 11.141"/>
    </g>
    <g fill="#58A8F7" transform="translate(10 139)">
      <polygon points="0 0 26 0 26 5 0 5" opacity=".499" transform="translate(10)"/>
      <polygon points="0 0 46 0 46 3 0 3" opacity=".197" transform="translate(0 17)"/>
      <polygon points="0 0 46 0 46 3 0 3" opacity=".197" transform="translate(0 10)"/>
      <polygon points="0 0 26 0 26 3 0 3" opacity=".197" transform="translate(10 24)"/>
    </g>
    <g fill="#58A8F7" transform="translate(124 139)">
      <polygon points="0 0 26 0 26 5 0 5" opacity=".499" transform="translate(10)"/>
      <polygon points="0 0 46 0 46 3 0 3" opacity=".197" transform="translate(0 17)"/>
      <polygon points="0 0 46 0 46 3 0 3" opacity=".197" transform="translate(0 10)"/>
      <polygon points="0 0 26 0 26 3 0 3" opacity=".197" transform="translate(10 24)"/>
    </g>
    <g fill="#58A8F7" transform="translate(67 139)">
      <polygon points="0 0 26 0 26 5 0 5" opacity=".499" transform="translate(10)"/>
      <polygon points="0 0 46 0 46 3 0 3" opacity=".197" transform="translate(0 17)"/>
      <polygon points="0 0 46 0 46 3 0 3" opacity=".197" transform="translate(0 10)"/>
      <polygon points="0 0 26 0 26 3 0 3" opacity=".197" transform="translate(10 24)"/>
    </g>
    <path fill="#58A8F7" d="M0,3.00947762 C0,1.34738902 1.34537458,0 2.99263929,0 L177.007361,0 C178.66015,0 180,1.33663106 180,3.00947762 L180,16 L0,16 L0,3.00947762 Z" opacity=".197"/>
    <path fill="#0D87FF" d="M2.5,5 C1.11928813,5 0,3.88071187 0,2.5 C0,1.11928813 1.11928813,0 2.5,0 C3.88071187,0 5,1.11928813 5,2.5 C5,3.88071187 3.88071187,5 2.5,5 Z M10.5,5 C9.11928813,5 8,3.88071187 8,2.5 C8,1.11928813 9.11928813,0 10.5,0 C11.8807119,0 13,1.11928813 13,2.5 C13,3.88071187 11.8807119,5 10.5,5 Z M18.5,5 C17.1192881,5 16,3.88071187 16,2.5 C16,1.11928813 17.1192881,0 18.5,0 C19.8807119,0 21,1.11928813 21,2.5 C21,3.88071187 19.8807119,5 18.5,5 Z" opacity=".499" transform="translate(5 6)"/>
  </g>
</svg></g></g></g><rect x="-1" y="-1" rx="3" ry="3" width="182" height="230" fill="none" stroke="#A2CEF9" stroke-width="2"/><g transform="translate(0,206)"><g><text x="90" y="4" text-anchor="middle" font-family="Roboto,sans-serif" font-size="14px" fill="#52565f">Add recipe</text></g></g></g><g transform="translate(410, 306)"><rect x="0" y="0" rx="2" ry="2" width="180" height="228" fill="#ffffff"/><g><g><g transform="translate( 0, 0 )"><svg xmlns="http://www.w3.org/2000/svg" xmlns:xlink="http://www.w3.org/1999/xlink" width="180" height="185" viewBox="0 0 180 185">
  <defs>
    <rect id="4ovv27dol7x-news_grid-a" width="46" height="36" rx="2"/>
    <rect id="4ovv27dol7x-news_grid-c" width="46" height="36" rx="2"/>
    <rect id="4ovv27dol7x-news_grid-e" width="46" height="36" rx="2"/>
    <rect id="4ovv27dol7x-news_grid-g" width="46" height="36" rx="2"/>
    <rect id="4ovv27dol7x-news_grid-i" width="46" height="36" rx="2"/>
    <rect id="4ovv27dol7x-news_grid-k" width="46" height="36" rx="2"/>
  </defs>
  <g fill="none" fill-rule="evenodd">
    <path fill="#58A8F7" d="M0,2.99971296 C0,1.34301724 1.34537458,0 2.99263929,0 L177.007361,0 C178.66015,0 180,1.34382565 180,2.99971296 L180,185 L0,185 L0,2.99971296 Z" opacity=".097"/>
    <path fill="#58A8F7" d="M0,3.00947762 C0,1.34738902 1.34537458,0 2.99263929,0 L177.007361,0 C178.66015,0 180,1.33663106 180,3.00947762 L180,16 L0,16 L0,3.00947762 Z" opacity=".197"/>
    <path fill="#0D87FF" d="M2.5,5 C1.11928813,5 0,3.88071187 0,2.5 C0,1.11928813 1.11928813,0 2.5,0 C3.88071187,0 5,1.11928813 5,2.5 C5,3.88071187 3.88071187,5 2.5,5 Z M10.5,5 C9.11928813,5 8,3.88071187 8,2.5 C8,1.11928813 9.11928813,0 10.5,0 C11.8807119,0 13,1.11928813 13,2.5 C13,3.88071187 11.8807119,5 10.5,5 Z M18.5,5 C17.1192881,5 16,3.88071187 16,2.5 C16,1.11928813 17.1192881,0 18.5,0 C19.8807119,0 21,1.11928813 21,2.5 C21,3.88071187 19.8807119,5 18.5,5 Z" opacity=".499" transform="translate(5 6)"/>
    <g transform="translate(10 26)">
      <rect width="46" height="36" fill="#58A8F7" opacity=".197" rx="2"/>
      <mask id="4ovv27dol7x-news_grid-b" fill="#fff">
        <use xlink:href="#4ovv27dol7x-news_grid-a"/>
      </mask>
      <path fill="#58A8F7" d="M36.8,17.1428571 C44.6661952,17.1428571 48.8497878,25.1942215 56.5142857,36 L15.7714286,36 C22.4274399,27.1011236 28.9338048,17.1428571 36.8,17.1428571 Z" mask="url(#4ovv27dol7x-news_grid-b)" opacity=".197"/>
      <path fill="#0D87FF" d="M10.5142857,13.7142857 C18.9189553,13.7142857 24.6854497,24.3407217 32.2,36 L-10.5142857,36 C-3.25570745,24.3407217 2.10961614,13.7142857 10.5142857,13.7142857 Z" mask="url(#4ovv27dol7x-news_grid-b)" opacity=".198"/>
      <circle cx="24.971" cy="9.429" r="5" fill="#58A8F7" mask="url(#4ovv27dol7x-news_grid-b)" opacity=".499"/>
    </g>
    <g transform="translate(10 106)">
      <rect width="46" height="36" fill="#58A8F7" opacity=".197" rx="2"/>
      <mask id="4ovv27dol7x-news_grid-d" fill="#fff">
        <use xlink:href="#4ovv27dol7x-news_grid-c"/>
      </mask>
      <path fill="#58A8F7" d="M36.8,17.1428571 C44.6661952,17.1428571 48.8497878,25.1942215 56.5142857,36 L15.7714286,36 C22.4274399,27.1011236 28.9338048,17.1428571 36.8,17.1428571 Z" mask="url(#4ovv27dol7x-news_grid-d)" opacity=".197"/>
      <path fill="#0D87FF" d="M10.5142857,13.7142857 C18.9189553,13.7142857 24.6854497,24.3407217 32.2,36 L-10.5142857,36 C-3.25570745,24.3407217 2.10961614,13.7142857 10.5142857,13.7142857 Z" mask="url(#4ovv27dol7x-news_grid-d)" opacity=".198"/>
      <circle cx="24.971" cy="9.429" r="5" fill="#58A8F7" mask="url(#4ovv27dol7x-news_grid-d)" opacity=".499"/>
    </g>
    <g transform="translate(67 26)">
      <rect width="46" height="36" fill="#58A8F7" opacity=".197" rx="2"/>
      <mask id="4ovv27dol7x-news_grid-f" fill="#fff">
        <use xlink:href="#4ovv27dol7x-news_grid-e"/>
      </mask>
      <path fill="#58A8F7" d="M36.8,17.1428571 C44.6661952,17.1428571 48.8497878,25.1942215 56.5142857,36 L15.7714286,36 C22.4274399,27.1011236 28.9338048,17.1428571 36.8,17.1428571 Z" mask="url(#4ovv27dol7x-news_grid-f)" opacity=".197"/>
      <path fill="#0D87FF" d="M10.5142857,13.7142857 C18.9189553,13.7142857 24.6854497,24.3407217 32.2,36 L-10.5142857,36 C-3.25570745,24.3407217 2.10961614,13.7142857 10.5142857,13.7142857 Z" mask="url(#4ovv27dol7x-news_grid-f)" opacity=".198"/>
      <circle cx="24.971" cy="9.429" r="5" fill="#58A8F7" mask="url(#4ovv27dol7x-news_grid-f)" opacity=".499"/>
    </g>
    <g transform="translate(67 106)">
      <rect width="46" height="36" fill="#58A8F7" opacity=".197" rx="2"/>
      <mask id="4ovv27dol7x-news_grid-h" fill="#fff">
        <use xlink:href="#4ovv27dol7x-news_grid-g"/>
      </mask>
      <path fill="#58A8F7" d="M36.8,17.1428571 C44.6661952,17.1428571 48.8497878,25.1942215 56.5142857,36 L15.7714286,36 C22.4274399,27.1011236 28.9338048,17.1428571 36.8,17.1428571 Z" mask="url(#4ovv27dol7x-news_grid-h)" opacity=".197"/>
      <path fill="#0D87FF" d="M10.5142857,13.7142857 C18.9189553,13.7142857 24.6854497,24.3407217 32.2,36 L-10.5142857,36 C-3.25570745,24.3407217 2.10961614,13.7142857 10.5142857,13.7142857 Z" mask="url(#4ovv27dol7x-news_grid-h)" opacity=".198"/>
      <circle cx="24.971" cy="9.429" r="5" fill="#58A8F7" mask="url(#4ovv27dol7x-news_grid-h)" opacity=".499"/>
    </g>
    <g fill="#58A8F7" transform="translate(10 67)">
      <polygon points="0 0 26 0 26 5 0 5" opacity=".499" transform="translate(10)"/>
      <polygon points="0 0 46 0 46 3 0 3" opacity=".197" transform="translate(0 17)"/>
      <polygon points="0 0 46 0 46 3 0 3" opacity=".197" transform="translate(0 10)"/>
      <polygon points="0 0 26 0 26 3 0 3" opacity=".197" transform="translate(10 24)"/>
    </g>
    <g fill="#58A8F7" transform="translate(10 147)">
      <polygon points="0 0 26 0 26 5 0 5" opacity=".499" transform="translate(10)"/>
      <polygon points="0 0 46 0 46 3 0 3" opacity=".197" transform="translate(0 17)"/>
      <polygon points="0 0 46 0 46 3 0 3" opacity=".197" transform="translate(0 10)"/>
      <polygon points="0 0 26 0 26 3 0 3" opacity=".197" transform="translate(10 24)"/>
    </g>
    <g fill="#58A8F7" transform="translate(67 67)">
      <polygon points="0 0 26 0 26 5 0 5" opacity=".499" transform="translate(10)"/>
      <polygon points="0 0 46 0 46 3 0 3" opacity=".197" transform="translate(0 17)"/>
      <polygon points="0 0 46 0 46 3 0 3" opacity=".197" transform="translate(0 10)"/>
      <polygon points="0 0 26 0 26 3 0 3" opacity=".197" transform="translate(10 24)"/>
    </g>
    <g fill="#58A8F7" transform="translate(67 147)">
      <polygon points="0 0 26 0 26 5 0 5" opacity=".499" transform="translate(10)"/>
      <polygon points="0 0 46 0 46 3 0 3" opacity=".197" transform="translate(0 17)"/>
      <polygon points="0 0 46 0 46 3 0 3" opacity=".197" transform="translate(0 10)"/>
      <polygon points="0 0 26 0 26 3 0 3" opacity=".197" transform="translate(10 24)"/>
    </g>
    <g fill="#58A8F7" transform="translate(124 67)">
      <polygon points="0 0 26 0 26 5 0 5" opacity=".499" transform="translate(10)"/>
      <polygon points="0 0 46 0 46 3 0 3" opacity=".197" transform="translate(0 17)"/>
      <polygon points="0 0 46 0 46 3 0 3" opacity=".197" transform="translate(0 10)"/>
      <polygon points="0 0 26 0 26 3 0 3" opacity=".197" transform="translate(10 24)"/>
    </g>
    <g fill="#58A8F7" transform="translate(124 147)">
      <polygon points="0 0 26 0 26 5 0 5" opacity=".499" transform="translate(10)"/>
      <polygon points="0 0 46 0 46 3 0 3" opacity=".197" transform="translate(0 17)"/>
      <polygon points="0 0 46 0 46 3 0 3" opacity=".197" transform="translate(0 10)"/>
      <polygon points="0 0 26 0 26 3 0 3" opacity=".197" transform="translate(10 24)"/>
    </g>
    <g transform="translate(124 26)">
      <rect width="46" height="36" fill="#58A8F7" opacity=".197" rx="2"/>
      <mask id="4ovv27dol7x-news_grid-j" fill="#fff">
        <use xlink:href="#4ovv27dol7x-news_grid-i"/>
      </mask>
      <path fill="#58A8F7" d="M36.8,17.1428571 C44.6661952,17.1428571 48.8497878,25.1942215 56.5142857,36 L15.7714286,36 C22.4274399,27.1011236 28.9338048,17.1428571 36.8,17.1428571 Z" mask="url(#4ovv27dol7x-news_grid-j)" opacity=".197"/>
      <path fill="#0D87FF" d="M10.5142857,13.7142857 C18.9189553,13.7142857 24.6854497,24.3407217 32.2,36 L-10.5142857,36 C-3.25570745,24.3407217 2.10961614,13.7142857 10.5142857,13.7142857 Z" mask="url(#4ovv27dol7x-news_grid-j)" opacity=".198"/>
      <circle cx="24.971" cy="9.429" r="5" fill="#58A8F7" mask="url(#4ovv27dol7x-news_grid-j)" opacity=".499"/>
    </g>
    <g transform="translate(124 106)">
      <rect width="46" height="36" fill="#58A8F7" opacity=".197" rx="2"/>
      <mask id="4ovv27dol7x-news_grid-l" fill="#fff">
        <use xlink:href="#4ovv27dol7x-news_grid-k"/>
      </mask>
      <path fill="#58A8F7" d="M36.8,17.1428571 C44.6661952,17.1428571 48.8497878,25.1942215 56.5142857,36 L15.7714286,36 C22.4274399,27.1011236 28.9338048,17.1428571 36.8,17.1428571 Z" mask="url(#4ovv27dol7x-news_grid-l)" opacity=".197"/>
      <path fill="#0D87FF" d="M10.5142857,13.7142857 C18.9189553,13.7142857 24.6854497,24.3407217 32.2,36 L-10.5142857,36 C-3.25570745,24.3407217 2.10961614,13.7142857 10.5142857,13.7142857 Z" mask="url(#4ovv27dol7x-news_grid-l)" opacity=".198"/>
      <circle cx="24.971" cy="9.429" r="5" fill="#58A8F7" mask="url(#4ovv27dol7x-news_grid-l)" opacity=".499"/>
    </g>
  </g>
</svg></g></g></g><rect x="-1" y="-1" rx="3" ry="3" width="182" height="230" fill="none" stroke="#A2CEF9" stroke-width="2"/><g transform="translate(0,206)"><g><text x="90" y="4" text-anchor="middle" font-family="Roboto,sans-serif" font-size="14px" fill="#52565f">All recipes</text></g></g></g><g transform="translate(810, 586)"><rect x="0" y="0" rx="2" ry="2" width="180" height="228" fill="#ffffff"/><g><g><g transform="translate( 0, 0 )"><svg xmlns="http://www.w3.org/2000/svg" xmlns:xlink="http://www.w3.org/1999/xlink" width="180" height="185" viewBox="0 0 180 185">
  <defs>
    <rect id="oz186u2p3w-news_grid-a" width="46" height="36" rx="2"/>
    <rect id="oz186u2p3w-news_grid-c" width="46" height="36" rx="2"/>
    <rect id="oz186u2p3w-news_grid-e" width="46" height="36" rx="2"/>
    <rect id="oz186u2p3w-news_grid-g" width="46" height="36" rx="2"/>
    <rect id="oz186u2p3w-news_grid-i" width="46" height="36" rx="2"/>
    <rect id="oz186u2p3w-news_grid-k" width="46" height="36" rx="2"/>
  </defs>
  <g fill="none" fill-rule="evenodd">
    <path fill="#58A8F7" d="M0,2.99971296 C0,1.34301724 1.34537458,0 2.99263929,0 L177.007361,0 C178.66015,0 180,1.34382565 180,2.99971296 L180,185 L0,185 L0,2.99971296 Z" opacity=".097"/>
    <path fill="#58A8F7" d="M0,3.00947762 C0,1.34738902 1.34537458,0 2.99263929,0 L177.007361,0 C178.66015,0 180,1.33663106 180,3.00947762 L180,16 L0,16 L0,3.00947762 Z" opacity=".197"/>
    <path fill="#0D87FF" d="M2.5,5 C1.11928813,5 0,3.88071187 0,2.5 C0,1.11928813 1.11928813,0 2.5,0 C3.88071187,0 5,1.11928813 5,2.5 C5,3.88071187 3.88071187,5 2.5,5 Z M10.5,5 C9.11928813,5 8,3.88071187 8,2.5 C8,1.11928813 9.11928813,0 10.5,0 C11.8807119,0 13,1.11928813 13,2.5 C13,3.88071187 11.8807119,5 10.5,5 Z M18.5,5 C17.1192881,5 16,3.88071187 16,2.5 C16,1.11928813 17.1192881,0 18.5,0 C19.8807119,0 21,1.11928813 21,2.5 C21,3.88071187 19.8807119,5 18.5,5 Z" opacity=".499" transform="translate(5 6)"/>
    <g transform="translate(10 26)">
      <rect width="46" height="36" fill="#58A8F7" opacity=".197" rx="2"/>
      <mask id="oz186u2p3w-news_grid-b" fill="#fff">
        <use xlink:href="#oz186u2p3w-news_grid-a"/>
      </mask>
      <path fill="#58A8F7" d="M36.8,17.1428571 C44.6661952,17.1428571 48.8497878,25.1942215 56.5142857,36 L15.7714286,36 C22.4274399,27.1011236 28.9338048,17.1428571 36.8,17.1428571 Z" mask="url(#oz186u2p3w-news_grid-b)" opacity=".197"/>
      <path fill="#0D87FF" d="M10.5142857,13.7142857 C18.9189553,13.7142857 24.6854497,24.3407217 32.2,36 L-10.5142857,36 C-3.25570745,24.3407217 2.10961614,13.7142857 10.5142857,13.7142857 Z" mask="url(#oz186u2p3w-news_grid-b)" opacity=".198"/>
      <circle cx="24.971" cy="9.429" r="5" fill="#58A8F7" mask="url(#oz186u2p3w-news_grid-b)" opacity=".499"/>
    </g>
    <g transform="translate(10 106)">
      <rect width="46" height="36" fill="#58A8F7" opacity=".197" rx="2"/>
      <mask id="oz186u2p3w-news_grid-d" fill="#fff">
        <use xlink:href="#oz186u2p3w-news_grid-c"/>
      </mask>
      <path fill="#58A8F7" d="M36.8,17.1428571 C44.6661952,17.1428571 48.8497878,25.1942215 56.5142857,36 L15.7714286,36 C22.4274399,27.1011236 28.9338048,17.1428571 36.8,17.1428571 Z" mask="url(#oz186u2p3w-news_grid-d)" opacity=".197"/>
      <path fill="#0D87FF" d="M10.5142857,13.7142857 C18.9189553,13.7142857 24.6854497,24.3407217 32.2,36 L-10.5142857,36 C-3.25570745,24.3407217 2.10961614,13.7142857 10.5142857,13.7142857 Z" mask="url(#oz186u2p3w-news_grid-d)" opacity=".198"/>
      <circle cx="24.971" cy="9.429" r="5" fill="#58A8F7" mask="url(#oz186u2p3w-news_grid-d)" opacity=".499"/>
    </g>
    <g transform="translate(67 26)">
      <rect width="46" height="36" fill="#58A8F7" opacity=".197" rx="2"/>
      <mask id="oz186u2p3w-news_grid-f" fill="#fff">
        <use xlink:href="#oz186u2p3w-news_grid-e"/>
      </mask>
      <path fill="#58A8F7" d="M36.8,17.1428571 C44.6661952,17.1428571 48.8497878,25.1942215 56.5142857,36 L15.7714286,36 C22.4274399,27.1011236 28.9338048,17.1428571 36.8,17.1428571 Z" mask="url(#oz186u2p3w-news_grid-f)" opacity=".197"/>
      <path fill="#0D87FF" d="M10.5142857,13.7142857 C18.9189553,13.7142857 24.6854497,24.3407217 32.2,36 L-10.5142857,36 C-3.25570745,24.3407217 2.10961614,13.7142857 10.5142857,13.7142857 Z" mask="url(#oz186u2p3w-news_grid-f)" opacity=".198"/>
      <circle cx="24.971" cy="9.429" r="5" fill="#58A8F7" mask="url(#oz186u2p3w-news_grid-f)" opacity=".499"/>
    </g>
    <g transform="translate(67 106)">
      <rect width="46" height="36" fill="#58A8F7" opacity=".197" rx="2"/>
      <mask id="oz186u2p3w-news_grid-h" fill="#fff">
        <use xlink:href="#oz186u2p3w-news_grid-g"/>
      </mask>
      <path fill="#58A8F7" d="M36.8,17.1428571 C44.6661952,17.1428571 48.8497878,25.1942215 56.5142857,36 L15.7714286,36 C22.4274399,27.1011236 28.9338048,17.1428571 36.8,17.1428571 Z" mask="url(#oz186u2p3w-news_grid-h)" opacity=".197"/>
      <path fill="#0D87FF" d="M10.5142857,13.7142857 C18.9189553,13.7142857 24.6854497,24.3407217 32.2,36 L-10.5142857,36 C-3.25570745,24.3407217 2.10961614,13.7142857 10.5142857,13.7142857 Z" mask="url(#oz186u2p3w-news_grid-h)" opacity=".198"/>
      <circle cx="24.971" cy="9.429" r="5" fill="#58A8F7" mask="url(#oz186u2p3w-news_grid-h)" opacity=".499"/>
    </g>
    <g fill="#58A8F7" transform="translate(10 67)">
      <polygon points="0 0 26 0 26 5 0 5" opacity=".499" transform="translate(10)"/>
      <polygon points="0 0 46 0 46 3 0 3" opacity=".197" transform="translate(0 17)"/>
      <polygon points="0 0 46 0 46 3 0 3" opacity=".197" transform="translate(0 10)"/>
      <polygon points="0 0 26 0 26 3 0 3" opacity=".197" transform="translate(10 24)"/>
    </g>
    <g fill="#58A8F7" transform="translate(10 147)">
      <polygon points="0 0 26 0 26 5 0 5" opacity=".499" transform="translate(10)"/>
      <polygon points="0 0 46 0 46 3 0 3" opacity=".197" transform="translate(0 17)"/>
      <polygon points="0 0 46 0 46 3 0 3" opacity=".197" transform="translate(0 10)"/>
      <polygon points="0 0 26 0 26 3 0 3" opacity=".197" transform="translate(10 24)"/>
    </g>
    <g fill="#58A8F7" transform="translate(67 67)">
      <polygon points="0 0 26 0 26 5 0 5" opacity=".499" transform="translate(10)"/>
      <polygon points="0 0 46 0 46 3 0 3" opacity=".197" transform="translate(0 17)"/>
      <polygon points="0 0 46 0 46 3 0 3" opacity=".197" transform="translate(0 10)"/>
      <polygon points="0 0 26 0 26 3 0 3" opacity=".197" transform="translate(10 24)"/>
    </g>
    <g fill="#58A8F7" transform="translate(67 147)">
      <polygon points="0 0 26 0 26 5 0 5" opacity=".499" transform="translate(10)"/>
      <polygon points="0 0 46 0 46 3 0 3" opacity=".197" transform="translate(0 17)"/>
      <polygon points="0 0 46 0 46 3 0 3" opacity=".197" transform="translate(0 10)"/>
      <polygon points="0 0 26 0 26 3 0 3" opacity=".197" transform="translate(10 24)"/>
    </g>
    <g fill="#58A8F7" transform="translate(124 67)">
      <polygon points="0 0 26 0 26 5 0 5" opacity=".499" transform="translate(10)"/>
      <polygon points="0 0 46 0 46 3 0 3" opacity=".197" transform="translate(0 17)"/>
      <polygon points="0 0 46 0 46 3 0 3" opacity=".197" transform="translate(0 10)"/>
      <polygon points="0 0 26 0 26 3 0 3" opacity=".197" transform="translate(10 24)"/>
    </g>
    <g fill="#58A8F7" transform="translate(124 147)">
      <polygon points="0 0 26 0 26 5 0 5" opacity=".499" transform="translate(10)"/>
      <polygon points="0 0 46 0 46 3 0 3" opacity=".197" transform="translate(0 17)"/>
      <polygon points="0 0 46 0 46 3 0 3" opacity=".197" transform="translate(0 10)"/>
      <polygon points="0 0 26 0 26 3 0 3" opacity=".197" transform="translate(10 24)"/>
    </g>
    <g transform="translate(124 26)">
      <rect width="46" height="36" fill="#58A8F7" opacity=".197" rx="2"/>
      <mask id="oz186u2p3w-news_grid-j" fill="#fff">
        <use xlink:href="#oz186u2p3w-news_grid-i"/>
      </mask>
      <path fill="#58A8F7" d="M36.8,17.1428571 C44.6661952,17.1428571 48.8497878,25.1942215 56.5142857,36 L15.7714286,36 C22.4274399,27.1011236 28.9338048,17.1428571 36.8,17.1428571 Z" mask="url(#oz186u2p3w-news_grid-j)" opacity=".197"/>
      <path fill="#0D87FF" d="M10.5142857,13.7142857 C18.9189553,13.7142857 24.6854497,24.3407217 32.2,36 L-10.5142857,36 C-3.25570745,24.3407217 2.10961614,13.7142857 10.5142857,13.7142857 Z" mask="url(#oz186u2p3w-news_grid-j)" opacity=".198"/>
      <circle cx="24.971" cy="9.429" r="5" fill="#58A8F7" mask="url(#oz186u2p3w-news_grid-j)" opacity=".499"/>
    </g>
    <g transform="translate(124 106)">
      <rect width="46" height="36" fill="#58A8F7" opacity=".197" rx="2"/>
      <mask id="oz186u2p3w-news_grid-l" fill="#fff">
        <use xlink:href="#oz186u2p3w-news_grid-k"/>
      </mask>
      <path fill="#58A8F7" d="M36.8,17.1428571 C44.6661952,17.1428571 48.8497878,25.1942215 56.5142857,36 L15.7714286,36 C22.4274399,27.1011236 28.9338048,17.1428571 36.8,17.1428571 Z" mask="url(#oz186u2p3w-news_grid-l)" opacity=".197"/>
      <path fill="#0D87FF" d="M10.5142857,13.7142857 C18.9189553,13.7142857 24.6854497,24.3407217 32.2,36 L-10.5142857,36 C-3.25570745,24.3407217 2.10961614,13.7142857 10.5142857,13.7142857 Z" mask="url(#oz186u2p3w-news_grid-l)" opacity=".198"/>
      <circle cx="24.971" cy="9.429" r="5" fill="#58A8F7" mask="url(#oz186u2p3w-news_grid-l)" opacity=".499"/>
    </g>
  </g>
</svg></g></g></g><rect x="-1" y="-1" rx="3" ry="3" width="182" height="230" fill="none" stroke="#A2CEF9" stroke-width="2"/><g transform="translate(0,206)"><g><text x="90" y="4" text-anchor="middle" font-family="Roboto,sans-serif" font-size="14px" fill="#52565f">my reviews</text></g></g></g><g transform="translate(1010, 1146)"><rect x="0" y="0" rx="2" ry="2" width="180" height="228" fill="#ffffff"/><g><g><g transform="translate( 0, 0 )"><svg xmlns="http://www.w3.org/2000/svg" width="180" height="185" viewBox="0 0 180 185">
  <g fill="none" fill-rule="evenodd">
    <path fill="#58A8F7" d="M0,2.99971296 C0,1.34301724 1.34537458,0 2.99263929,0 L177.007361,0 C178.66015,0 180,1.34382565 180,2.99971296 L180,185 L0,185 L0,2.99971296 Z" opacity=".097"/>
    <path fill="#58A8F7" d="M0,3.00947762 C0,1.34738902 1.34537458,0 2.99263929,0 L177.007361,0 C178.66015,0 180,1.33663106 180,3.00947762 L180,16 L0,16 L0,3.00947762 Z" opacity=".197"/>
    <path fill="#0D87FF" d="M2.5,5 C1.11928813,5 0,3.88071187 0,2.5 C0,1.11928813 1.11928813,0 2.5,0 C3.88071187,0 5,1.11928813 5,2.5 C5,3.88071187 3.88071187,5 2.5,5 Z M10.5,5 C9.11928813,5 8,3.88071187 8,2.5 C8,1.11928813 9.11928813,0 10.5,0 C11.8807119,0 13,1.11928813 13,2.5 C13,3.88071187 11.8807119,5 10.5,5 Z M18.5,5 C17.1192881,5 16,3.88071187 16,2.5 C16,1.11928813 17.1192881,0 18.5,0 C19.8807119,0 21,1.11928813 21,2.5 C21,3.88071187 19.8807119,5 18.5,5 Z" opacity=".499" transform="translate(5 6)"/>
    <g transform="translate(45 91)">
      <g transform="translate(0 6)">
        <rect width="91" height="11" fill="#58A8F7" opacity=".499" rx="2"/>
        <rect width="89" height="9" x="1" y="1" fill="#FFF" rx="1"/>
      </g>
      <polygon fill="#58A8F7" points="0 0 20 0 20 3 0 3" opacity=".197"/>
    </g>
    <g transform="translate(45 118)">
      <g transform="translate(0 6)">
        <rect width="91" height="11" fill="#58A8F7" opacity=".499" rx="2"/>
        <rect width="89" height="9" x="1" y="1" fill="#FFF" rx="1"/>
      </g>
      <polygon fill="#58A8F7" points="0 0 20 0 20 3 0 3" opacity=".197"/>
    </g>
    <g transform="translate(45 145)">
      <g transform="translate(0 6)">
        <rect width="43" height="11" fill="#58A8F7" opacity=".499" rx="2"/>
        <rect width="41" height="9" x="1" y="1" fill="#FFF" rx="1"/>
      </g>
      <polygon fill="#58A8F7" points="0 0 20 0 20 3 0 3" opacity=".197"/>
    </g>
    <g transform="translate(93 145)">
      <g transform="translate(0 6)">
        <rect width="43" height="11" fill="#58A8F7" opacity=".499" rx="2"/>
        <rect width="41" height="9" x="1" y="1" fill="#FFF" rx="1"/>
      </g>
      <polygon fill="#58A8F7" points="0 0 20 0 20 3 0 3" opacity=".197"/>
    </g>
    <polygon fill="#58A8F7" points="0 0 50 0 50 8 0 8" opacity=".499" transform="translate(65 36)"/>
    <g transform="translate(45 64)">
      <g transform="translate(0 6)">
        <rect width="91" height="11" fill="#58A8F7" opacity=".499" rx="2"/>
        <rect width="89" height="9" x="1" y="1" fill="#FFF" rx="1"/>
        <polygon fill="#58A8F7" points="0 0 53 0 53 3 0 3" opacity=".197" transform="translate(4 4)"/>
        <polygon fill="#0D87FF" points="2.5 3 0 0 5 0" transform="translate(81 4)"/>
      </g>
      <polygon fill="#58A8F7" points="0 0 32 0 32 3 0 3" opacity=".197"/>
    </g>
  </g>
</svg></g></g></g><rect x="-1" y="-1" rx="3" ry="3" width="182" height="230" fill="none" stroke="#A2CEF9" stroke-width="2"/><g transform="translate(0,206)"><g><text x="90" y="4" text-anchor="middle" font-family="Roboto,sans-serif" font-size="14px" fill="#52565f">edit recipe</text></g></g></g><g transform="translate(1010, 866)"><rect x="0" y="0" rx="2" ry="2" width="180" height="228" fill="#ffffff"/><g><g><g transform="translate( 0, 0 )"><svg xmlns="http://www.w3.org/2000/svg" xmlns:xlink="http://www.w3.org/1999/xlink" width="180" height="185" viewBox="0 0 180 185">
  <defs>
    <rect id="fwot0rapasf-article-a" width="160" height="82" rx="2"/>
  </defs>
  <g fill="none" fill-rule="evenodd">
    <path fill="#58A8F7" d="M0,2.99971296 C0,1.34301724 1.34537458,0 2.99263929,0 L177.007361,0 C178.66015,0 180,1.34382565 180,2.99971296 L180,185 L0,185 L0,2.99971296 Z" opacity=".097"/>
    <g transform="translate(10 26)">
      <rect width="160" height="82" fill="#58A8F7" opacity=".197" rx="2"/>
      <mask id="fwot0rapasf-article-b" fill="#fff">
        <use xlink:href="#fwot0rapasf-article-a"/>
      </mask>
      <use fill="#58A8F7" opacity="0" xlink:href="#fwot0rapasf-article-a"/>
      <path fill="#58A8F7" d="M123.544554,38 C147.292079,38 158.861386,56.7865169 182,82 C163.123762,82 82.3134379,82 59,82 C79.0940594,61.2359551 99.7970297,38 123.544554,38 Z" mask="url(#fwot0rapasf-article-b)" opacity=".197"/>
      <path fill="#0D87FF" d="M44.5,31 C69.8826643,31 86.3055556,55.3181901 109,82 C79.2231422,82 7.11330049,82 -20,82 C1.92139189,55.3181901 19.1173357,31 44.5,31 Z" mask="url(#fwot0rapasf-article-b)" opacity=".198"/>
      <circle cx="87" cy="22" r="9" fill="#58A8F7" mask="url(#fwot0rapasf-article-b)" opacity=".499"/>
    </g>
    <path fill="#58A8F7" d="M0,3.00947762 C0,1.34738902 1.34537458,0 2.99263929,0 L177.007361,0 C178.66015,0 180,1.33663106 180,3.00947762 L180,16 L0,16 L0,3.00947762 Z" opacity=".197"/>
    <path fill="#0D87FF" d="M2.5,5 C1.11928813,5 0,3.88071187 0,2.5 C0,1.11928813 1.11928813,0 2.5,0 C3.88071187,0 5,1.11928813 5,2.5 C5,3.88071187 3.88071187,5 2.5,5 Z M10.5,5 C9.11928813,5 8,3.88071187 8,2.5 C8,1.11928813 9.11928813,0 10.5,0 C11.8807119,0 13,1.11928813 13,2.5 C13,3.88071187 11.8807119,5 10.5,5 Z M18.5,5 C17.1192881,5 16,3.88071187 16,2.5 C16,1.11928813 17.1192881,0 18.5,0 C19.8807119,0 21,1.11928813 21,2.5 C21,3.88071187 19.8807119,5 18.5,5 Z" opacity=".499" transform="translate(5 6)"/>
    <polygon fill="#58A8F7" points="0 0 12 0 12 3 0 3" opacity=".197" transform="translate(84 118)"/>
    <polygon fill="#58A8F7" points="0 0 50 0 50 8 0 8" opacity=".499" transform="translate(65 124)"/>
    <polygon fill="#58A8F7" points="0 0 126 0 126 3 0 3" opacity=".197" transform="translate(27 151)"/>
    <polygon fill="#58A8F7" points="0 0 126 0 126 3 0 3" opacity=".197" transform="translate(27 144)"/>
    <polygon fill="#58A8F7" points="0 0 126 0 126 3 0 3" opacity=".197" transform="translate(27 137)"/>
    <polygon fill="#58A8F7" points="0 0 126 0 126 3 0 3" opacity=".197" transform="translate(27 158)"/>
    <polygon fill="#58A8F7" points="0 0 126 0 126 3 0 3" opacity=".197" transform="translate(27 165)"/>
    <polygon fill="#58A8F7" points="0 0 76 0 76 3 0 3" opacity=".197" transform="translate(52 172)"/>
  </g>
</svg></g></g></g><rect x="-1" y="-1" rx="3" ry="3" width="182" height="230" fill="none" stroke="#A2CEF9" stroke-width="2"/><g transform="translate(0,206)"><g><text x="90" y="4" text-anchor="middle" font-family="Roboto,sans-serif" font-size="14px" fill="#52565f">recipes</text></g></g></g><g transform="translate(1010, 586)"><rect x="0" y="0" rx="2" ry="2" width="180" height="228" fill="#ffffff"/><g><g><g transform="translate( 0, 0 )"><svg xmlns="http://www.w3.org/2000/svg" xmlns:xlink="http://www.w3.org/1999/xlink" width="180" height="185" viewBox="0 0 180 185">
  <defs>
    <rect id="llwr89ach8p-news_grid-a" width="46" height="36" rx="2"/>
    <rect id="llwr89ach8p-news_grid-c" width="46" height="36" rx="2"/>
    <rect id="llwr89ach8p-news_grid-e" width="46" height="36" rx="2"/>
    <rect id="llwr89ach8p-news_grid-g" width="46" height="36" rx="2"/>
    <rect id="llwr89ach8p-news_grid-i" width="46" height="36" rx="2"/>
    <rect id="llwr89ach8p-news_grid-k" width="46" height="36" rx="2"/>
  </defs>
  <g fill="none" fill-rule="evenodd">
    <path fill="#58A8F7" d="M0,2.99971296 C0,1.34301724 1.34537458,0 2.99263929,0 L177.007361,0 C178.66015,0 180,1.34382565 180,2.99971296 L180,185 L0,185 L0,2.99971296 Z" opacity=".097"/>
    <path fill="#58A8F7" d="M0,3.00947762 C0,1.34738902 1.34537458,0 2.99263929,0 L177.007361,0 C178.66015,0 180,1.33663106 180,3.00947762 L180,16 L0,16 L0,3.00947762 Z" opacity=".197"/>
    <path fill="#0D87FF" d="M2.5,5 C1.11928813,5 0,3.88071187 0,2.5 C0,1.11928813 1.11928813,0 2.5,0 C3.88071187,0 5,1.11928813 5,2.5 C5,3.88071187 3.88071187,5 2.5,5 Z M10.5,5 C9.11928813,5 8,3.88071187 8,2.5 C8,1.11928813 9.11928813,0 10.5,0 C11.8807119,0 13,1.11928813 13,2.5 C13,3.88071187 11.8807119,5 10.5,5 Z M18.5,5 C17.1192881,5 16,3.88071187 16,2.5 C16,1.11928813 17.1192881,0 18.5,0 C19.8807119,0 21,1.11928813 21,2.5 C21,3.88071187 19.8807119,5 18.5,5 Z" opacity=".499" transform="translate(5 6)"/>
    <g transform="translate(10 26)">
      <rect width="46" height="36" fill="#58A8F7" opacity=".197" rx="2"/>
      <mask id="llwr89ach8p-news_grid-b" fill="#fff">
        <use xlink:href="#llwr89ach8p-news_grid-a"/>
      </mask>
      <path fill="#58A8F7" d="M36.8,17.1428571 C44.6661952,17.1428571 48.8497878,25.1942215 56.5142857,36 L15.7714286,36 C22.4274399,27.1011236 28.9338048,17.1428571 36.8,17.1428571 Z" mask="url(#llwr89ach8p-news_grid-b)" opacity=".197"/>
      <path fill="#0D87FF" d="M10.5142857,13.7142857 C18.9189553,13.7142857 24.6854497,24.3407217 32.2,36 L-10.5142857,36 C-3.25570745,24.3407217 2.10961614,13.7142857 10.5142857,13.7142857 Z" mask="url(#llwr89ach8p-news_grid-b)" opacity=".198"/>
      <circle cx="24.971" cy="9.429" r="5" fill="#58A8F7" mask="url(#llwr89ach8p-news_grid-b)" opacity=".499"/>
    </g>
    <g transform="translate(10 106)">
      <rect width="46" height="36" fill="#58A8F7" opacity=".197" rx="2"/>
      <mask id="llwr89ach8p-news_grid-d" fill="#fff">
        <use xlink:href="#llwr89ach8p-news_grid-c"/>
      </mask>
      <path fill="#58A8F7" d="M36.8,17.1428571 C44.6661952,17.1428571 48.8497878,25.1942215 56.5142857,36 L15.7714286,36 C22.4274399,27.1011236 28.9338048,17.1428571 36.8,17.1428571 Z" mask="url(#llwr89ach8p-news_grid-d)" opacity=".197"/>
      <path fill="#0D87FF" d="M10.5142857,13.7142857 C18.9189553,13.7142857 24.6854497,24.3407217 32.2,36 L-10.5142857,36 C-3.25570745,24.3407217 2.10961614,13.7142857 10.5142857,13.7142857 Z" mask="url(#llwr89ach8p-news_grid-d)" opacity=".198"/>
      <circle cx="24.971" cy="9.429" r="5" fill="#58A8F7" mask="url(#llwr89ach8p-news_grid-d)" opacity=".499"/>
    </g>
    <g transform="translate(67 26)">
      <rect width="46" height="36" fill="#58A8F7" opacity=".197" rx="2"/>
      <mask id="llwr89ach8p-news_grid-f" fill="#fff">
        <use xlink:href="#llwr89ach8p-news_grid-e"/>
      </mask>
      <path fill="#58A8F7" d="M36.8,17.1428571 C44.6661952,17.1428571 48.8497878,25.1942215 56.5142857,36 L15.7714286,36 C22.4274399,27.1011236 28.9338048,17.1428571 36.8,17.1428571 Z" mask="url(#llwr89ach8p-news_grid-f)" opacity=".197"/>
      <path fill="#0D87FF" d="M10.5142857,13.7142857 C18.9189553,13.7142857 24.6854497,24.3407217 32.2,36 L-10.5142857,36 C-3.25570745,24.3407217 2.10961614,13.7142857 10.5142857,13.7142857 Z" mask="url(#llwr89ach8p-news_grid-f)" opacity=".198"/>
      <circle cx="24.971" cy="9.429" r="5" fill="#58A8F7" mask="url(#llwr89ach8p-news_grid-f)" opacity=".499"/>
    </g>
    <g transform="translate(67 106)">
      <rect width="46" height="36" fill="#58A8F7" opacity=".197" rx="2"/>
      <mask id="llwr89ach8p-news_grid-h" fill="#fff">
        <use xlink:href="#llwr89ach8p-news_grid-g"/>
      </mask>
      <path fill="#58A8F7" d="M36.8,17.1428571 C44.6661952,17.1428571 48.8497878,25.1942215 56.5142857,36 L15.7714286,36 C22.4274399,27.1011236 28.9338048,17.1428571 36.8,17.1428571 Z" mask="url(#llwr89ach8p-news_grid-h)" opacity=".197"/>
      <path fill="#0D87FF" d="M10.5142857,13.7142857 C18.9189553,13.7142857 24.6854497,24.3407217 32.2,36 L-10.5142857,36 C-3.25570745,24.3407217 2.10961614,13.7142857 10.5142857,13.7142857 Z" mask="url(#llwr89ach8p-news_grid-h)" opacity=".198"/>
      <circle cx="24.971" cy="9.429" r="5" fill="#58A8F7" mask="url(#llwr89ach8p-news_grid-h)" opacity=".499"/>
    </g>
    <g fill="#58A8F7" transform="translate(10 67)">
      <polygon points="0 0 26 0 26 5 0 5" opacity=".499" transform="translate(10)"/>
      <polygon points="0 0 46 0 46 3 0 3" opacity=".197" transform="translate(0 17)"/>
      <polygon points="0 0 46 0 46 3 0 3" opacity=".197" transform="translate(0 10)"/>
      <polygon points="0 0 26 0 26 3 0 3" opacity=".197" transform="translate(10 24)"/>
    </g>
    <g fill="#58A8F7" transform="translate(10 147)">
      <polygon points="0 0 26 0 26 5 0 5" opacity=".499" transform="translate(10)"/>
      <polygon points="0 0 46 0 46 3 0 3" opacity=".197" transform="translate(0 17)"/>
      <polygon points="0 0 46 0 46 3 0 3" opacity=".197" transform="translate(0 10)"/>
      <polygon points="0 0 26 0 26 3 0 3" opacity=".197" transform="translate(10 24)"/>
    </g>
    <g fill="#58A8F7" transform="translate(67 67)">
      <polygon points="0 0 26 0 26 5 0 5" opacity=".499" transform="translate(10)"/>
      <polygon points="0 0 46 0 46 3 0 3" opacity=".197" transform="translate(0 17)"/>
      <polygon points="0 0 46 0 46 3 0 3" opacity=".197" transform="translate(0 10)"/>
      <polygon points="0 0 26 0 26 3 0 3" opacity=".197" transform="translate(10 24)"/>
    </g>
    <g fill="#58A8F7" transform="translate(67 147)">
      <polygon points="0 0 26 0 26 5 0 5" opacity=".499" transform="translate(10)"/>
      <polygon points="0 0 46 0 46 3 0 3" opacity=".197" transform="translate(0 17)"/>
      <polygon points="0 0 46 0 46 3 0 3" opacity=".197" transform="translate(0 10)"/>
      <polygon points="0 0 26 0 26 3 0 3" opacity=".197" transform="translate(10 24)"/>
    </g>
    <g fill="#58A8F7" transform="translate(124 67)">
      <polygon points="0 0 26 0 26 5 0 5" opacity=".499" transform="translate(10)"/>
      <polygon points="0 0 46 0 46 3 0 3" opacity=".197" transform="translate(0 17)"/>
      <polygon points="0 0 46 0 46 3 0 3" opacity=".197" transform="translate(0 10)"/>
      <polygon points="0 0 26 0 26 3 0 3" opacity=".197" transform="translate(10 24)"/>
    </g>
    <g fill="#58A8F7" transform="translate(124 147)">
      <polygon points="0 0 26 0 26 5 0 5" opacity=".499" transform="translate(10)"/>
      <polygon points="0 0 46 0 46 3 0 3" opacity=".197" transform="translate(0 17)"/>
      <polygon points="0 0 46 0 46 3 0 3" opacity=".197" transform="translate(0 10)"/>
      <polygon points="0 0 26 0 26 3 0 3" opacity=".197" transform="translate(10 24)"/>
    </g>
    <g transform="translate(124 26)">
      <rect width="46" height="36" fill="#58A8F7" opacity=".197" rx="2"/>
      <mask id="llwr89ach8p-news_grid-j" fill="#fff">
        <use xlink:href="#llwr89ach8p-news_grid-i"/>
      </mask>
      <path fill="#58A8F7" d="M36.8,17.1428571 C44.6661952,17.1428571 48.8497878,25.1942215 56.5142857,36 L15.7714286,36 C22.4274399,27.1011236 28.9338048,17.1428571 36.8,17.1428571 Z" mask="url(#llwr89ach8p-news_grid-j)" opacity=".197"/>
      <path fill="#0D87FF" d="M10.5142857,13.7142857 C18.9189553,13.7142857 24.6854497,24.3407217 32.2,36 L-10.5142857,36 C-3.25570745,24.3407217 2.10961614,13.7142857 10.5142857,13.7142857 Z" mask="url(#llwr89ach8p-news_grid-j)" opacity=".198"/>
      <circle cx="24.971" cy="9.429" r="5" fill="#58A8F7" mask="url(#llwr89ach8p-news_grid-j)" opacity=".499"/>
    </g>
    <g transform="translate(124 106)">
      <rect width="46" height="36" fill="#58A8F7" opacity=".197" rx="2"/>
      <mask id="llwr89ach8p-news_grid-l" fill="#fff">
        <use xlink:href="#llwr89ach8p-news_grid-k"/>
      </mask>
      <path fill="#58A8F7" d="M36.8,17.1428571 C44.6661952,17.1428571 48.8497878,25.1942215 56.5142857,36 L15.7714286,36 C22.4274399,27.1011236 28.9338048,17.1428571 36.8,17.1428571 Z" mask="url(#llwr89ach8p-news_grid-l)" opacity=".197"/>
      <path fill="#0D87FF" d="M10.5142857,13.7142857 C18.9189553,13.7142857 24.6854497,24.3407217 32.2,36 L-10.5142857,36 C-3.25570745,24.3407217 2.10961614,13.7142857 10.5142857,13.7142857 Z" mask="url(#llwr89ach8p-news_grid-l)" opacity=".198"/>
      <circle cx="24.971" cy="9.429" r="5" fill="#58A8F7" mask="url(#llwr89ach8p-news_grid-l)" opacity=".499"/>
    </g>
  </g>
</svg></g></g></g><rect x="-1" y="-1" rx="3" ry="3" width="182" height="230" fill="none" stroke="#A2CEF9" stroke-width="2"/><g transform="translate(0,206)"><g><text x="90" y="4" text-anchor="middle" font-family="Roboto,sans-serif" font-size="14px" fill="#52565f">My recipes</text></g></g></g><g transform="translate(1210, 586)"><rect x="0" y="0" rx="2" ry="2" width="180" height="228" fill="#ffffff"/><g><g><g transform="translate( 0, 0 )"><svg xmlns="http://www.w3.org/2000/svg" xmlns:xlink="http://www.w3.org/1999/xlink" width="180" height="185" viewBox="0 0 180 185">
  <defs>
    <rect id="oywo10kmd1t-main-a" width="160" height="82" rx="2"/>
  </defs>
  <g fill="none" fill-rule="evenodd">
    <path fill="#58A8F7" d="M0,2.99971296 C0,1.34301724 1.34537458,0 2.99263929,0 L177.007361,0 C178.66015,0 180,1.34382565 180,2.99971296 L180,185 L0,185 L0,2.99971296 Z" opacity=".097"/>
    <g transform="translate(10 26)">
      <rect width="160" height="82" fill="#58A8F7" opacity=".197" rx="2"/>
      <mask id="oywo10kmd1t-main-b" fill="#fff">
        <use xlink:href="#oywo10kmd1t-main-a"/>
      </mask>
      <use fill="#58A8F7" opacity="0" xlink:href="#oywo10kmd1t-main-a"/>
      <path fill="#58A8F7" d="M123.544554,38 C147.292079,38 158.861386,56.7865169 182,82 C163.123762,82 82.3134379,82 59,82 C79.0940594,61.2359551 99.7970297,38 123.544554,38 Z" mask="url(#oywo10kmd1t-main-b)" opacity=".197"/>
      <path fill="#0D87FF" d="M44.5,31 C69.8826643,31 86.3055556,55.3181901 109,82 C79.2231422,82 7.11330049,82 -20,82 C1.92139189,55.3181901 19.1173357,31 44.5,31 Z" mask="url(#oywo10kmd1t-main-b)" opacity=".198"/>
      <circle cx="87" cy="22" r="9" fill="#58A8F7" mask="url(#oywo10kmd1t-main-b)" opacity=".499"/>
    </g>
    <g transform="translate(26 118)">
      <circle cx="7.5" cy="7.5" r="7.5" fill="#0D87FF" opacity=".499"/>
      <polygon fill="#FFF" points="7.5 9.75 4.855 11.141 5.36 8.195 3.22 6.109 6.177 5.68 7.5 3 8.823 5.68 11.78 6.109 9.64 8.195 10.145 11.141"/>
    </g>
    <g transform="translate(140 118)">
      <circle cx="7.5" cy="7.5" r="7.5" fill="#0D87FF" opacity=".499"/>
      <polygon fill="#FFF" points="7.5 9.75 4.855 11.141 5.36 8.195 3.22 6.109 6.177 5.68 7.5 3 8.823 5.68 11.78 6.109 9.64 8.195 10.145 11.141"/>
    </g>
    <g transform="translate(83 118)">
      <circle cx="7.5" cy="7.5" r="7.5" fill="#0D87FF" opacity=".499"/>
      <polygon fill="#FFF" points="7.5 9.75 4.855 11.141 5.36 8.195 3.22 6.109 6.177 5.68 7.5 3 8.823 5.68 11.78 6.109 9.64 8.195 10.145 11.141"/>
    </g>
    <g fill="#58A8F7" transform="translate(10 139)">
      <polygon points="0 0 26 0 26 5 0 5" opacity=".499" transform="translate(10)"/>
      <polygon points="0 0 46 0 46 3 0 3" opacity=".197" transform="translate(0 17)"/>
      <polygon points="0 0 46 0 46 3 0 3" opacity=".197" transform="translate(0 10)"/>
      <polygon points="0 0 26 0 26 3 0 3" opacity=".197" transform="translate(10 24)"/>
    </g>
    <g fill="#58A8F7" transform="translate(124 139)">
      <polygon points="0 0 26 0 26 5 0 5" opacity=".499" transform="translate(10)"/>
      <polygon points="0 0 46 0 46 3 0 3" opacity=".197" transform="translate(0 17)"/>
      <polygon points="0 0 46 0 46 3 0 3" opacity=".197" transform="translate(0 10)"/>
      <polygon points="0 0 26 0 26 3 0 3" opacity=".197" transform="translate(10 24)"/>
    </g>
    <g fill="#58A8F7" transform="translate(67 139)">
      <polygon points="0 0 26 0 26 5 0 5" opacity=".499" transform="translate(10)"/>
      <polygon points="0 0 46 0 46 3 0 3" opacity=".197" transform="translate(0 17)"/>
      <polygon points="0 0 46 0 46 3 0 3" opacity=".197" transform="translate(0 10)"/>
      <polygon points="0 0 26 0 26 3 0 3" opacity=".197" transform="translate(10 24)"/>
    </g>
    <path fill="#58A8F7" d="M0,3.00947762 C0,1.34738902 1.34537458,0 2.99263929,0 L177.007361,0 C178.66015,0 180,1.33663106 180,3.00947762 L180,16 L0,16 L0,3.00947762 Z" opacity=".197"/>
    <path fill="#0D87FF" d="M2.5,5 C1.11928813,5 0,3.88071187 0,2.5 C0,1.11928813 1.11928813,0 2.5,0 C3.88071187,0 5,1.11928813 5,2.5 C5,3.88071187 3.88071187,5 2.5,5 Z M10.5,5 C9.11928813,5 8,3.88071187 8,2.5 C8,1.11928813 9.11928813,0 10.5,0 C11.8807119,0 13,1.11928813 13,2.5 C13,3.88071187 11.8807119,5 10.5,5 Z M18.5,5 C17.1192881,5 16,3.88071187 16,2.5 C16,1.11928813 17.1192881,0 18.5,0 C19.8807119,0 21,1.11928813 21,2.5 C21,3.88071187 19.8807119,5 18.5,5 Z" opacity=".499" transform="translate(5 6)"/>
  </g>
</svg></g></g></g><rect x="-1" y="-1" rx="3" ry="3" width="182" height="230" fill="none" stroke="#A2CEF9" stroke-width="2"/><g transform="translate(0,206)"><g><text x="90" y="4" text-anchor="middle" font-family="Roboto,sans-serif" font-size="14px" fill="#52565f">grocery list</text></g></g></g><g transform="translate(1010, 306)"><rect x="0" y="0" rx="2" ry="2" width="180" height="228" fill="#ffffff"/><g><g><g transform="translate( 0, 0 )"><svg xmlns="http://www.w3.org/2000/svg" xmlns:xlink="http://www.w3.org/1999/xlink" width="180" height="185" viewBox="0 0 180 185">
  <defs>
    <rect id="gg8s67dc19t-news_grid-a" width="46" height="36" rx="2"/>
    <rect id="gg8s67dc19t-news_grid-c" width="46" height="36" rx="2"/>
    <rect id="gg8s67dc19t-news_grid-e" width="46" height="36" rx="2"/>
    <rect id="gg8s67dc19t-news_grid-g" width="46" height="36" rx="2"/>
    <rect id="gg8s67dc19t-news_grid-i" width="46" height="36" rx="2"/>
    <rect id="gg8s67dc19t-news_grid-k" width="46" height="36" rx="2"/>
  </defs>
  <g fill="none" fill-rule="evenodd">
    <path fill="#58A8F7" d="M0,2.99971296 C0,1.34301724 1.34537458,0 2.99263929,0 L177.007361,0 C178.66015,0 180,1.34382565 180,2.99971296 L180,185 L0,185 L0,2.99971296 Z" opacity=".097"/>
    <path fill="#58A8F7" d="M0,3.00947762 C0,1.34738902 1.34537458,0 2.99263929,0 L177.007361,0 C178.66015,0 180,1.33663106 180,3.00947762 L180,16 L0,16 L0,3.00947762 Z" opacity=".197"/>
    <path fill="#0D87FF" d="M2.5,5 C1.11928813,5 0,3.88071187 0,2.5 C0,1.11928813 1.11928813,0 2.5,0 C3.88071187,0 5,1.11928813 5,2.5 C5,3.88071187 3.88071187,5 2.5,5 Z M10.5,5 C9.11928813,5 8,3.88071187 8,2.5 C8,1.11928813 9.11928813,0 10.5,0 C11.8807119,0 13,1.11928813 13,2.5 C13,3.88071187 11.8807119,5 10.5,5 Z M18.5,5 C17.1192881,5 16,3.88071187 16,2.5 C16,1.11928813 17.1192881,0 18.5,0 C19.8807119,0 21,1.11928813 21,2.5 C21,3.88071187 19.8807119,5 18.5,5 Z" opacity=".499" transform="translate(5 6)"/>
    <g transform="translate(10 26)">
      <rect width="46" height="36" fill="#58A8F7" opacity=".197" rx="2"/>
      <mask id="gg8s67dc19t-news_grid-b" fill="#fff">
        <use xlink:href="#gg8s67dc19t-news_grid-a"/>
      </mask>
      <path fill="#58A8F7" d="M36.8,17.1428571 C44.6661952,17.1428571 48.8497878,25.1942215 56.5142857,36 L15.7714286,36 C22.4274399,27.1011236 28.9338048,17.1428571 36.8,17.1428571 Z" mask="url(#gg8s67dc19t-news_grid-b)" opacity=".197"/>
      <path fill="#0D87FF" d="M10.5142857,13.7142857 C18.9189553,13.7142857 24.6854497,24.3407217 32.2,36 L-10.5142857,36 C-3.25570745,24.3407217 2.10961614,13.7142857 10.5142857,13.7142857 Z" mask="url(#gg8s67dc19t-news_grid-b)" opacity=".198"/>
      <circle cx="24.971" cy="9.429" r="5" fill="#58A8F7" mask="url(#gg8s67dc19t-news_grid-b)" opacity=".499"/>
    </g>
    <g transform="translate(10 106)">
      <rect width="46" height="36" fill="#58A8F7" opacity=".197" rx="2"/>
      <mask id="gg8s67dc19t-news_grid-d" fill="#fff">
        <use xlink:href="#gg8s67dc19t-news_grid-c"/>
      </mask>
      <path fill="#58A8F7" d="M36.8,17.1428571 C44.6661952,17.1428571 48.8497878,25.1942215 56.5142857,36 L15.7714286,36 C22.4274399,27.1011236 28.9338048,17.1428571 36.8,17.1428571 Z" mask="url(#gg8s67dc19t-news_grid-d)" opacity=".197"/>
      <path fill="#0D87FF" d="M10.5142857,13.7142857 C18.9189553,13.7142857 24.6854497,24.3407217 32.2,36 L-10.5142857,36 C-3.25570745,24.3407217 2.10961614,13.7142857 10.5142857,13.7142857 Z" mask="url(#gg8s67dc19t-news_grid-d)" opacity=".198"/>
      <circle cx="24.971" cy="9.429" r="5" fill="#58A8F7" mask="url(#gg8s67dc19t-news_grid-d)" opacity=".499"/>
    </g>
    <g transform="translate(67 26)">
      <rect width="46" height="36" fill="#58A8F7" opacity=".197" rx="2"/>
      <mask id="gg8s67dc19t-news_grid-f" fill="#fff">
        <use xlink:href="#gg8s67dc19t-news_grid-e"/>
      </mask>
      <path fill="#58A8F7" d="M36.8,17.1428571 C44.6661952,17.1428571 48.8497878,25.1942215 56.5142857,36 L15.7714286,36 C22.4274399,27.1011236 28.9338048,17.1428571 36.8,17.1428571 Z" mask="url(#gg8s67dc19t-news_grid-f)" opacity=".197"/>
      <path fill="#0D87FF" d="M10.5142857,13.7142857 C18.9189553,13.7142857 24.6854497,24.3407217 32.2,36 L-10.5142857,36 C-3.25570745,24.3407217 2.10961614,13.7142857 10.5142857,13.7142857 Z" mask="url(#gg8s67dc19t-news_grid-f)" opacity=".198"/>
      <circle cx="24.971" cy="9.429" r="5" fill="#58A8F7" mask="url(#gg8s67dc19t-news_grid-f)" opacity=".499"/>
    </g>
    <g transform="translate(67 106)">
      <rect width="46" height="36" fill="#58A8F7" opacity=".197" rx="2"/>
      <mask id="gg8s67dc19t-news_grid-h" fill="#fff">
        <use xlink:href="#gg8s67dc19t-news_grid-g"/>
      </mask>
      <path fill="#58A8F7" d="M36.8,17.1428571 C44.6661952,17.1428571 48.8497878,25.1942215 56.5142857,36 L15.7714286,36 C22.4274399,27.1011236 28.9338048,17.1428571 36.8,17.1428571 Z" mask="url(#gg8s67dc19t-news_grid-h)" opacity=".197"/>
      <path fill="#0D87FF" d="M10.5142857,13.7142857 C18.9189553,13.7142857 24.6854497,24.3407217 32.2,36 L-10.5142857,36 C-3.25570745,24.3407217 2.10961614,13.7142857 10.5142857,13.7142857 Z" mask="url(#gg8s67dc19t-news_grid-h)" opacity=".198"/>
      <circle cx="24.971" cy="9.429" r="5" fill="#58A8F7" mask="url(#gg8s67dc19t-news_grid-h)" opacity=".499"/>
    </g>
    <g fill="#58A8F7" transform="translate(10 67)">
      <polygon points="0 0 26 0 26 5 0 5" opacity=".499" transform="translate(10)"/>
      <polygon points="0 0 46 0 46 3 0 3" opacity=".197" transform="translate(0 17)"/>
      <polygon points="0 0 46 0 46 3 0 3" opacity=".197" transform="translate(0 10)"/>
      <polygon points="0 0 26 0 26 3 0 3" opacity=".197" transform="translate(10 24)"/>
    </g>
    <g fill="#58A8F7" transform="translate(10 147)">
      <polygon points="0 0 26 0 26 5 0 5" opacity=".499" transform="translate(10)"/>
      <polygon points="0 0 46 0 46 3 0 3" opacity=".197" transform="translate(0 17)"/>
      <polygon points="0 0 46 0 46 3 0 3" opacity=".197" transform="translate(0 10)"/>
      <polygon points="0 0 26 0 26 3 0 3" opacity=".197" transform="translate(10 24)"/>
    </g>
    <g fill="#58A8F7" transform="translate(67 67)">
      <polygon points="0 0 26 0 26 5 0 5" opacity=".499" transform="translate(10)"/>
      <polygon points="0 0 46 0 46 3 0 3" opacity=".197" transform="translate(0 17)"/>
      <polygon points="0 0 46 0 46 3 0 3" opacity=".197" transform="translate(0 10)"/>
      <polygon points="0 0 26 0 26 3 0 3" opacity=".197" transform="translate(10 24)"/>
    </g>
    <g fill="#58A8F7" transform="translate(67 147)">
      <polygon points="0 0 26 0 26 5 0 5" opacity=".499" transform="translate(10)"/>
      <polygon points="0 0 46 0 46 3 0 3" opacity=".197" transform="translate(0 17)"/>
      <polygon points="0 0 46 0 46 3 0 3" opacity=".197" transform="translate(0 10)"/>
      <polygon points="0 0 26 0 26 3 0 3" opacity=".197" transform="translate(10 24)"/>
    </g>
    <g fill="#58A8F7" transform="translate(124 67)">
      <polygon points="0 0 26 0 26 5 0 5" opacity=".499" transform="translate(10)"/>
      <polygon points="0 0 46 0 46 3 0 3" opacity=".197" transform="translate(0 17)"/>
      <polygon points="0 0 46 0 46 3 0 3" opacity=".197" transform="translate(0 10)"/>
      <polygon points="0 0 26 0 26 3 0 3" opacity=".197" transform="translate(10 24)"/>
    </g>
    <g fill="#58A8F7" transform="translate(124 147)">
      <polygon points="0 0 26 0 26 5 0 5" opacity=".499" transform="translate(10)"/>
      <polygon points="0 0 46 0 46 3 0 3" opacity=".197" transform="translate(0 17)"/>
      <polygon points="0 0 46 0 46 3 0 3" opacity=".197" transform="translate(0 10)"/>
      <polygon points="0 0 26 0 26 3 0 3" opacity=".197" transform="translate(10 24)"/>
    </g>
    <g transform="translate(124 26)">
      <rect width="46" height="36" fill="#58A8F7" opacity=".197" rx="2"/>
      <mask id="gg8s67dc19t-news_grid-j" fill="#fff">
        <use xlink:href="#gg8s67dc19t-news_grid-i"/>
      </mask>
      <path fill="#58A8F7" d="M36.8,17.1428571 C44.6661952,17.1428571 48.8497878,25.1942215 56.5142857,36 L15.7714286,36 C22.4274399,27.1011236 28.9338048,17.1428571 36.8,17.1428571 Z" mask="url(#gg8s67dc19t-news_grid-j)" opacity=".197"/>
      <path fill="#0D87FF" d="M10.5142857,13.7142857 C18.9189553,13.7142857 24.6854497,24.3407217 32.2,36 L-10.5142857,36 C-3.25570745,24.3407217 2.10961614,13.7142857 10.5142857,13.7142857 Z" mask="url(#gg8s67dc19t-news_grid-j)" opacity=".198"/>
      <circle cx="24.971" cy="9.429" r="5" fill="#58A8F7" mask="url(#gg8s67dc19t-news_grid-j)" opacity=".499"/>
    </g>
    <g transform="translate(124 106)">
      <rect width="46" height="36" fill="#58A8F7" opacity=".197" rx="2"/>
      <mask id="gg8s67dc19t-news_grid-l" fill="#fff">
        <use xlink:href="#gg8s67dc19t-news_grid-k"/>
      </mask>
      <path fill="#58A8F7" d="M36.8,17.1428571 C44.6661952,17.1428571 48.8497878,25.1942215 56.5142857,36 L15.7714286,36 C22.4274399,27.1011236 28.9338048,17.1428571 36.8,17.1428571 Z" mask="url(#gg8s67dc19t-news_grid-l)" opacity=".197"/>
      <path fill="#0D87FF" d="M10.5142857,13.7142857 C18.9189553,13.7142857 24.6854497,24.3407217 32.2,36 L-10.5142857,36 C-3.25570745,24.3407217 2.10961614,13.7142857 10.5142857,13.7142857 Z" mask="url(#gg8s67dc19t-news_grid-l)" opacity=".198"/>
      <circle cx="24.971" cy="9.429" r="5" fill="#58A8F7" mask="url(#gg8s67dc19t-news_grid-l)" opacity=".499"/>
    </g>
  </g>
</svg></g></g></g><rect x="-1" y="-1" rx="3" ry="3" width="182" height="230" fill="none" stroke="#A2CEF9" stroke-width="2"/><g transform="translate(0,206)"><g><text x="90" y="4" text-anchor="middle" font-family="Roboto,sans-serif" font-size="14px" fill="#52565f">Profile</text></g></g></g><g transform="translate(1410, 306)"><rect x="0" y="0" rx="2" ry="2" width="180" height="228" fill="#ffffff"/><g><g><g transform="translate( 0, 0 )"><svg xmlns="http://www.w3.org/2000/svg" width="180" height="185" viewBox="0 0 180 185">
  <g fill="none" fill-rule="evenodd">
    <path fill="#58A8F7" d="M0,2.99971296 C0,1.34301724 1.34537458,0 2.99263929,0 L177.007361,0 C178.66015,0 180,1.34382565 180,2.99971296 L180,185 L0,185 L0,2.99971296 Z" opacity=".097"/>
    <path fill="#58A8F7" d="M0,3.00947762 C0,1.34738902 1.34537458,0 2.99263929,0 L177.007361,0 C178.66015,0 180,1.33663106 180,3.00947762 L180,16 L0,16 L0,3.00947762 Z" opacity=".197"/>
    <path fill="#0D87FF" d="M2.5,5 C1.11928813,5 0,3.88071187 0,2.5 C0,1.11928813 1.11928813,0 2.5,0 C3.88071187,0 5,1.11928813 5,2.5 C5,3.88071187 3.88071187,5 2.5,5 Z M10.5,5 C9.11928813,5 8,3.88071187 8,2.5 C8,1.11928813 9.11928813,0 10.5,0 C11.8807119,0 13,1.11928813 13,2.5 C13,3.88071187 11.8807119,5 10.5,5 Z M18.5,5 C17.1192881,5 16,3.88071187 16,2.5 C16,1.11928813 17.1192881,0 18.5,0 C19.8807119,0 21,1.11928813 21,2.5 C21,3.88071187 19.8807119,5 18.5,5 Z" opacity=".499" transform="translate(5 6)"/>
    <path fill="#FFF" d="M3.8458278,-1.55376046e-16 L106.154172,1.55376046e-16 C107.49145,-9.02779573e-17 107.97638,0.139238417 108.465269,0.400699056 C108.954157,0.662159695 109.33784,1.04584256 109.599301,1.53473144 C109.860762,2.02362033 110,2.50854969 110,3.8458278 L110,105.154172 C110,106.49145 109.860762,106.97638 109.599301,107.465269 C109.33784,107.954157 108.954157,108.33784 108.465269,108.599301 C107.97638,108.860762 107.49145,109 106.154172,109 L3.8458278,109 C2.50854969,109 2.02362033,108.860762 1.53473144,108.599301 C1.04584256,108.33784 0.662159695,107.954157 0.400699056,107.465269 C0.139238417,106.97638 6.01853049e-17,106.49145 -1.03584031e-16,105.154172 L1.03584031e-16,3.8458278 C-6.01853049e-17,2.50854969 0.139238417,2.02362033 0.400699056,1.53473144 C0.662159695,1.04584256 1.04584256,0.662159695 1.53473144,0.400699056 C2.02362033,0.139238417 2.50854969,9.02779573e-17 3.8458278,-1.55376046e-16 Z" transform="translate(35 46)"/>
    <path fill="#0D87FF" d="M12.6045932,13.4731774 L14.9278974,13.4731774 L14.9278974,16.7400275 L12.6045932,16.7400275 L12.6045932,20.6602476 L8.89264731,20.6602476 L8.89264731,16.7400275 L0,16.7400275 L0,12.7936726 L8.17162185,2.36588721 L12.6045932,2.36588721 L12.6045932,13.4731774 Z M3.60512729,13.4731774 L9.02617054,13.4731774 L9.02617054,6.5997249 L8.33184973,6.5997249 L3.60512729,12.7936726 L3.60512729,13.4731774 Z M25.040057,2 C29.1792772,2 32.3571301,4.84869326 32.3571301,11.5130674 C32.3571301,18.1513067 29.1792772,21 25.040057,21 C20.9008368,21 17.7229838,18.1513067 17.7229838,11.5130674 C17.7229838,4.84869326 20.9008368,2 25.040057,2 Z M25.040057,17.6547455 C27.8707495,17.6547455 28.511661,14.4401651 28.511661,11.5130674 C28.511661,8.55983494 27.8707495,5.34525447 25.040057,5.34525447 C22.2360691,5.34525447 21.5951576,8.55983494 21.5951576,11.5130674 C21.5951576,14.4401651 22.2360691,17.6547455 25.040057,17.6547455 Z M47.6766957,13.4731774 L50,13.4731774 L50,16.7400275 L47.6766957,16.7400275 L47.6766957,20.6602476 L43.9647499,20.6602476 L43.9647499,16.7400275 L35.0721026,16.7400275 L35.0721026,12.7936726 L43.2437244,2.36588721 L47.6766957,2.36588721 L47.6766957,13.4731774 Z M38.6772299,13.4731774 L44.0982731,13.4731774 L44.0982731,6.5997249 L43.4039523,6.5997249 L38.6772299,12.7936726 L38.6772299,13.4731774 Z" transform="translate(65 103)"/>
    <path fill="#0D87FF" d="M12.5,9.6106997 L22.1106997,0 L25,2.8893003 L15.3893003,12.5 L25,22.1106997 L22.1106997,25 L12.5,15.3893003 L2.8893003,25 L0,22.1106997 L9.6106997,12.5 L0,2.8893003 L2.8893003,0 L12.5,9.6106997 Z" transform="translate(78 63)"/>
    <g fill="#58A8F7" opacity=".197" transform="translate(55 130)">
      <polygon points="0 0 70 0 70 3 0 3"/>
      <polygon points="0 0 42 0 42 3 0 3" transform="translate(14 7)"/>
    </g>
  </g>
</svg></g></g></g><rect x="-1" y="-1" rx="3" ry="3" width="182" height="230" fill="none" stroke="#A2CEF9" stroke-width="2"/><g transform="translate(0,206)"><g><text x="90" y="4" text-anchor="middle" font-family="Roboto,sans-serif" font-size="14px" fill="#52565f">Error page</text></g></g></g><g transform="translate(410, 26)"><rect x="0" y="0" rx="2" ry="2" width="180" height="228" fill="#ffffff"/><g><g><g transform="translate( 0, 0 )"><svg xmlns="http://www.w3.org/2000/svg" xmlns:xlink="http://www.w3.org/1999/xlink" width="180" height="185" viewBox="0 0 180 185">
  <defs>
    <rect id="8ag71v57b68-main-a" width="160" height="82" rx="2"/>
  </defs>
  <g fill="none" fill-rule="evenodd">
    <path fill="#58A8F7" d="M0,2.99971296 C0,1.34301724 1.34537458,0 2.99263929,0 L177.007361,0 C178.66015,0 180,1.34382565 180,2.99971296 L180,185 L0,185 L0,2.99971296 Z" opacity=".097"/>
    <g transform="translate(10 26)">
      <rect width="160" height="82" fill="#58A8F7" opacity=".197" rx="2"/>
      <mask id="8ag71v57b68-main-b" fill="#fff">
        <use xlink:href="#8ag71v57b68-main-a"/>
      </mask>
      <use fill="#58A8F7" opacity="0" xlink:href="#8ag71v57b68-main-a"/>
      <path fill="#58A8F7" d="M123.544554,38 C147.292079,38 158.861386,56.7865169 182,82 C163.123762,82 82.3134379,82 59,82 C79.0940594,61.2359551 99.7970297,38 123.544554,38 Z" mask="url(#8ag71v57b68-main-b)" opacity=".197"/>
      <path fill="#0D87FF" d="M44.5,31 C69.8826643,31 86.3055556,55.3181901 109,82 C79.2231422,82 7.11330049,82 -20,82 C1.92139189,55.3181901 19.1173357,31 44.5,31 Z" mask="url(#8ag71v57b68-main-b)" opacity=".198"/>
      <circle cx="87" cy="22" r="9" fill="#58A8F7" mask="url(#8ag71v57b68-main-b)" opacity=".499"/>
    </g>
    <g transform="translate(26 118)">
      <circle cx="7.5" cy="7.5" r="7.5" fill="#0D87FF" opacity=".499"/>
      <polygon fill="#FFF" points="7.5 9.75 4.855 11.141 5.36 8.195 3.22 6.109 6.177 5.68 7.5 3 8.823 5.68 11.78 6.109 9.64 8.195 10.145 11.141"/>
    </g>
    <g transform="translate(140 118)">
      <circle cx="7.5" cy="7.5" r="7.5" fill="#0D87FF" opacity=".499"/>
      <polygon fill="#FFF" points="7.5 9.75 4.855 11.141 5.36 8.195 3.22 6.109 6.177 5.68 7.5 3 8.823 5.68 11.78 6.109 9.64 8.195 10.145 11.141"/>
    </g>
    <g transform="translate(83 118)">
      <circle cx="7.5" cy="7.5" r="7.5" fill="#0D87FF" opacity=".499"/>
      <polygon fill="#FFF" points="7.5 9.75 4.855 11.141 5.36 8.195 3.22 6.109 6.177 5.68 7.5 3 8.823 5.68 11.78 6.109 9.64 8.195 10.145 11.141"/>
    </g>
    <g fill="#58A8F7" transform="translate(10 139)">
      <polygon points="0 0 26 0 26 5 0 5" opacity=".499" transform="translate(10)"/>
      <polygon points="0 0 46 0 46 3 0 3" opacity=".197" transform="translate(0 17)"/>
      <polygon points="0 0 46 0 46 3 0 3" opacity=".197" transform="translate(0 10)"/>
      <polygon points="0 0 26 0 26 3 0 3" opacity=".197" transform="translate(10 24)"/>
    </g>
    <g fill="#58A8F7" transform="translate(124 139)">
      <polygon points="0 0 26 0 26 5 0 5" opacity=".499" transform="translate(10)"/>
      <polygon points="0 0 46 0 46 3 0 3" opacity=".197" transform="translate(0 17)"/>
      <polygon points="0 0 46 0 46 3 0 3" opacity=".197" transform="translate(0 10)"/>
      <polygon points="0 0 26 0 26 3 0 3" opacity=".197" transform="translate(10 24)"/>
    </g>
    <g fill="#58A8F7" transform="translate(67 139)">
      <polygon points="0 0 26 0 26 5 0 5" opacity=".499" transform="translate(10)"/>
      <polygon points="0 0 46 0 46 3 0 3" opacity=".197" transform="translate(0 17)"/>
      <polygon points="0 0 46 0 46 3 0 3" opacity=".197" transform="translate(0 10)"/>
      <polygon points="0 0 26 0 26 3 0 3" opacity=".197" transform="translate(10 24)"/>
    </g>
    <path fill="#58A8F7" d="M0,3.00947762 C0,1.34738902 1.34537458,0 2.99263929,0 L177.007361,0 C178.66015,0 180,1.33663106 180,3.00947762 L180,16 L0,16 L0,3.00947762 Z" opacity=".197"/>
    <path fill="#0D87FF" d="M2.5,5 C1.11928813,5 0,3.88071187 0,2.5 C0,1.11928813 1.11928813,0 2.5,0 C3.88071187,0 5,1.11928813 5,2.5 C5,3.88071187 3.88071187,5 2.5,5 Z M10.5,5 C9.11928813,5 8,3.88071187 8,2.5 C8,1.11928813 9.11928813,0 10.5,0 C11.8807119,0 13,1.11928813 13,2.5 C13,3.88071187 11.8807119,5 10.5,5 Z M18.5,5 C17.1192881,5 16,3.88071187 16,2.5 C16,1.11928813 17.1192881,0 18.5,0 C19.8807119,0 21,1.11928813 21,2.5 C21,3.88071187 19.8807119,5 18.5,5 Z" opacity=".499" transform="translate(5 6)"/>
  </g>
</svg></g></g></g><rect x="-1" y="-1" rx="3" ry="3" width="182" height="230" fill="none" stroke="#A2CEF9" stroke-width="2"/><g transform="translate(0,206)"><g><text x="90" y="4" text-anchor="middle" font-family="Roboto,sans-serif" font-size="14px" fill="#52565f">Homepage</text></g></g></g></g><g><g><g><path d="M 260,534L 260,560L 260,586" stroke="#4d9ef6" stroke-width="2" fill="none"/></g><g><g transform="translate( 250,524 )"><circle cx="10" cy="10" r="9" stroke-width="2" stroke="#A2CEF9" fill="#ffffff"/><path d="M10 7L13 12L7 12Z" fill="#58A8F7"/></g><g transform="translate( 254,580 )"><circle cx="6" cy="6" r="5" stroke-width="2" stroke="#A2CEF9" fill="#ffffff"/><path d="M6 8L4 5L8 5Z" fill="#58A8F7"/></g></g></g><g><g><path d="M 460,534L 460,560L 460,586" stroke="#4d9ef6" stroke-width="2" fill="none"/><path d="M 460,560L 650,560Q660,560 660,570L 660,586" stroke="#4d9ef6" stroke-width="2" fill="none"/></g><g><g transform="translate( 450,524 )"><circle cx="10" cy="10" r="9" stroke-width="2" stroke="#A2CEF9" fill="#ffffff"/><path d="M10 7L13 12L7 12Z" fill="#58A8F7"/></g><g transform="translate( 454,580 )"><circle cx="6" cy="6" r="5" stroke-width="2" stroke="#A2CEF9" fill="#ffffff"/><path d="M6 8L4 5L8 5Z" fill="#58A8F7"/></g><g transform="translate( 654,580 )"><circle cx="6" cy="6" r="5" stroke-width="2" stroke="#A2CEF9" fill="#ffffff"/><path d="M6 8L4 5L8 5Z" fill="#58A8F7"/></g></g></g><g><g><path d="M 1060,1094L 1060,1120L 1060,1146" stroke="#4d9ef6" stroke-width="2" fill="none"/></g><g><g transform="translate( 1050,1084 )"><circle cx="10" cy="10" r="9" stroke-width="2" stroke="#A2CEF9" fill="#ffffff"/><path d="M10 7L13 12L7 12Z" fill="#58A8F7"/></g><g transform="translate( 1054,1140 )"><circle cx="6" cy="6" r="5" stroke-width="2" stroke="#A2CEF9" fill="#ffffff"/><path d="M6 8L4 5L8 5Z" fill="#58A8F7"/></g></g></g><g><g><path d="M 1060,814L 1060,840L 1060,866" stroke="#4d9ef6" stroke-width="2" fill="none"/></g><g><g transform="translate( 1050,804 )"><circle cx="10" cy="10" r="9" stroke-width="2" stroke="#A2CEF9" fill="#ffffff"/><path d="M10 7L13 12L7 12Z" fill="#58A8F7"/></g><g transform="translate( 1054,860 )"><circle cx="6" cy="6" r="5" stroke-width="2" stroke="#A2CEF9" fill="#ffffff"/><path d="M6 8L4 5L8 5Z" fill="#58A8F7"/></g></g></g><g><g><path d="M 1070,560L 870,560Q860,560 860,570L 860,586" stroke="#4d9ef6" stroke-width="2" fill="none"/><path d="M 1060,534L 1060,560L 1060,586" stroke="#4d9ef6" stroke-width="2" fill="none"/><path d="M 1050,560L 1250,560Q1260,560 1260,570L 1260,586" stroke="#4d9ef6" stroke-width="2" fill="none"/></g><g><g transform="translate( 1050,524 )"><circle cx="10" cy="10" r="9" stroke-width="2" stroke="#A2CEF9" fill="#ffffff"/><path d="M10 7L13 12L7 12Z" fill="#58A8F7"/></g><g transform="translate( 854,580 )"><circle cx="6" cy="6" r="5" stroke-width="2" stroke="#A2CEF9" fill="#ffffff"/><path d="M6 8L4 5L8 5Z" fill="#58A8F7"/></g><g transform="translate( 1054,580 )"><circle cx="6" cy="6" r="5" stroke-width="2" stroke="#A2CEF9" fill="#ffffff"/><path d="M6 8L4 5L8 5Z" fill="#58A8F7"/></g><g transform="translate( 1254,580 )"><circle cx="6" cy="6" r="5" stroke-width="2" stroke="#A2CEF9" fill="#ffffff"/><path d="M6 8L4 5L8 5Z" fill="#58A8F7"/></g></g></g><g><g><path d="M 270,280L 70,280Q60,280 60,290L 60,306" stroke="#4d9ef6" stroke-width="2" fill="none"/><path d="M 470,280L 270,280Q260,280 260,290L 260,306" stroke="#4d9ef6" stroke-width="2" fill="none"/><path d="M 460,254L 460,280L 460,306" stroke="#4d9ef6" stroke-width="2" fill="none"/><path d="M 450,280L 1050,280Q1060,280 1060,290L 1060,306" stroke="#4d9ef6" stroke-width="2" fill="none"/><path d="M 1050,280L 1450,280Q1460,280 1460,290L 1460,306" stroke="#4d9ef6" stroke-width="2" fill="none"/></g><g><g transform="translate( 450,244 )"><circle cx="10" cy="10" r="9" stroke-width="2" stroke="#A2CEF9" fill="#ffffff"/><path d="M10 7L13 12L7 12Z" fill="#58A8F7"/></g><g transform="translate( 54,300 )"><circle cx="6" cy="6" r="5" stroke-width="2" stroke="#A2CEF9" fill="#ffffff"/><path d="M6 8L4 5L8 5Z" fill="#58A8F7"/></g><g transform="translate( 254,300 )"><circle cx="6" cy="6" r="5" stroke-width="2" stroke="#A2CEF9" fill="#ffffff"/><path d="M6 8L4 5L8 5Z" fill="#58A8F7"/></g><g transform="translate( 454,300 )"><circle cx="6" cy="6" r="5" stroke-width="2" stroke="#A2CEF9" fill="#ffffff"/><path d="M6 8L4 5L8 5Z" fill="#58A8F7"/></g><g transform="translate( 1054,300 )"><circle cx="6" cy="6" r="5" stroke-width="2" stroke="#A2CEF9" fill="#ffffff"/><path d="M6 8L4 5L8 5Z" fill="#58A8F7"/></g><g transform="translate( 1454,300 )"><circle cx="6" cy="6" r="5" stroke-width="2" stroke="#A2CEF9" fill="#ffffff"/><path d="M6 8L4 5L8 5Z" fill="#58A8F7"/></g></g></g></g></g></g></svg>